<svg width="140" height="60" viewBox="0 0 140 60" fill="none" xmlns="http://www.w3.org/2000/svg">
<g clip-path="url(#clip0_226_4928)">
<path d="M116.82 8.41217C117.076 8.11774 117.395 7.82962 117.449 7.42163C116.502 7.29966 115.544 7.29335 114.593 7.24708C112.497 7.18609 110.389 7.09145 108.285 7.06832C106.043 7.02416 103.8 7.12931 101.558 7.15665C98.7016 7.20081 95.8537 7.42373 93.0099 7.6782C92.0732 7.75812 91.1239 7.80649 90.2206 8.09881C89.1728 8.39745 88.2088 8.90849 87.2511 9.41322C86.6749 9.70012 86.1208 10.0298 85.5935 10.3996C85.4678 10.4947 85.3257 10.566 85.1744 10.6099L85.1325 10.5825C80.849 10.879 76.5802 11.3522 72.3115 11.8065C69.5872 12.1535 66.8629 12.4185 64.1532 12.7907C63.1054 12.919 62.0576 13.1419 61.0098 13.2303C60.8652 13.2176 60.5907 13.2828 60.6032 13.0557C61.1544 12.6351 61.8082 12.4017 62.418 12.0946C63.9666 11.3635 65.5804 10.7805 67.238 10.3533C71.8358 9.10617 76.6557 8.90428 81.3876 9.26811C82.7959 9.36275 84.1874 9.61091 85.5935 9.73709C84.7113 9.30386 83.7871 8.96737 82.8692 8.60565C80.1973 7.61301 77.3808 7.07673 74.5664 6.68767C74.8283 6.26706 75.1762 5.8822 75.3857 5.42584C75.3648 5.22605 75.107 5.29124 74.9666 5.25339C73.902 5.21974 72.8354 5.25339 71.7729 5.31438C71.2448 4.76338 70.7963 4.14087 70.2452 3.61091C70.2974 3.49111 70.3892 3.39306 70.505 3.3333C70.6725 3.39873 70.8338 3.47896 70.987 3.57305C71.5801 3.08094 71.9343 2.37431 72.4267 1.79177C72.5986 1.54571 72.892 1.2639 72.7578 0.935827C72.5768 0.752982 72.3428 0.63226 72.0893 0.590927C70.0105 0.0546498 67.8352 -0.0547088 65.6893 0.021001C64.4066 0.0505302 63.128 0.178489 61.8648 0.403756C60.5981 0.670675 59.3506 1.02196 58.1304 1.45528C57.7763 1.59408 57.3865 1.72657 57.1685 2.06306C57.4891 2.74655 58.254 3.04939 58.7298 3.59829C58.6097 3.93785 58.4697 4.27001 58.3106 4.59303C57.7846 5.73709 57.288 6.90639 56.7599 8.03783C56.3407 8.15349 55.909 8.3617 55.4606 8.27968C54.1047 8.03783 52.7468 7.8107 51.3762 7.66979C50.5925 7.57726 49.7961 7.61301 49.0103 7.55623C47.5433 7.11669 46.0764 6.45213 44.4984 6.56779C44.0793 6.61616 43.5889 6.66033 43.3228 7.02626C43.1321 7.28493 43.2829 7.61932 43.4233 7.86748C43.8718 8.61406 44.5508 9.17137 45.1418 9.79808C45.8815 10.5341 46.594 11.3627 47.5769 11.7686C47.952 11.9453 48.3774 11.8549 48.7756 11.8633C51.3972 11.8464 54.0146 11.7287 56.6404 11.7034C56.5112 12.1015 56.3515 12.4889 56.1626 12.8622C56.0369 13.1146 55.754 13.2113 55.5339 13.3564C53.8847 14.2629 52.5665 15.6887 51.59 17.2828C49.6599 17.4511 47.7445 17.7413 45.8228 17.9747C45.4729 17.2555 45.1271 16.5341 44.775 15.817C44.161 14.6056 43.6581 13.3375 43.0419 12.1283C42.8848 11.7076 41.9145 11.7644 42.1723 12.3133C42.8135 14.307 43.6057 16.2481 44.2281 18.246C43.5697 18.7069 42.9495 19.2203 42.3734 19.7813C41.4501 20.7834 40.7714 21.9871 40.391 23.2976C39.5926 23.4006 38.7857 23.4153 37.9894 23.5079C37.3775 23.5794 37.3041 24.6035 37.9119 24.7339C38.5762 24.7991 39.2468 24.6982 39.9132 24.7339C40.3093 24.755 40.4476 25.1987 40.764 25.3649C41.0898 25.5656 41.475 25.6466 41.8537 25.5941C45.848 25.4511 49.8422 25.3712 53.8344 25.2239C54.8068 24.8748 55.7561 24.4605 56.7557 24.1871C58.4825 23.7023 60.2398 23.3342 62.0157 23.0851C66.7476 22.4101 71.5445 22.5699 76.2952 22.9022C79.0196 23.1125 81.704 23.5058 84.4116 23.7897L84.487 23.7602C85.6955 23.7722 86.9035 23.7082 88.1041 23.5688C91.8751 23.1409 95.561 22.1485 99.039 20.6246C101.221 19.7121 103.312 18.5939 105.284 17.2849C107.906 15.6698 110.454 13.9411 113.05 12.286C114.231 11.49 115.479 10.7976 116.778 10.2166C116.288 10.1114 115.798 10.021 115.312 9.92005C115.819 9.42373 116.332 8.92952 116.82 8.41217ZM104.121 7.59198C106.336 7.54781 108.555 7.45738 110.77 7.55412C110.041 8.225 109.36 8.94845 108.606 9.59198C106.273 9.57095 103.939 9.50575 101.608 9.63194C102.304 9.00102 103.023 8.38062 103.704 7.72657C103.758 7.6731 103.824 7.63308 103.896 7.60971C103.969 7.58634 104.046 7.58027 104.121 7.59198ZM102.882 7.65507C102.176 8.32174 101.476 8.99682 100.747 9.64035C98.3076 9.70344 95.8662 9.80228 93.429 9.9516C94.1897 9.25339 95.0301 8.64771 95.7761 7.93478C98.1421 7.79808 100.51 7.66979 102.882 7.65507ZM89.1351 8.9169C89.9614 8.51808 90.8507 8.26686 91.763 8.17452C92.7228 8.11774 93.6805 8.021 94.6424 8.00838C93.955 8.65402 93.3012 9.33961 92.5593 9.92426C92.4863 9.99 92.3914 10.026 92.2932 10.0252C90.273 10.1262 88.2529 10.2755 86.2369 10.4458C87.1538 9.84923 88.1241 9.3395 89.1351 8.92321V8.9169ZM60.2554 7.09776C60.5348 6.44862 60.8317 5.80579 61.146 5.16927C61.7474 5.62142 62.3866 6.03152 62.9671 6.51311C62.0597 6.69398 61.167 6.95055 60.2554 7.09776ZM63.3988 6.35959C62.6695 5.91795 61.9884 5.4006 61.3032 4.90008C61.3802 4.68135 61.477 4.47017 61.5924 4.26916C62.395 4.79282 63.1578 5.37747 63.9478 5.91585C63.7551 6.06096 63.5727 6.21238 63.3883 6.35959H63.3988ZM64.1302 6.34697C63.864 6.40586 64.0254 6.07358 64.1951 6.0883C64.4424 6.06517 64.3355 6.40586 64.126 6.34697H64.1302ZM66.8272 5.85486C66.1524 5.90533 65.4944 6.07778 64.8217 6.1556L64.4801 5.92216C65.1869 5.25244 65.9284 4.62064 66.7015 4.02941C67.0557 4.42689 67.4161 4.82016 67.7493 5.23446C67.4517 5.4679 67.2233 5.85696 66.8168 5.85486H66.8272ZM67.7158 5.71816C67.8164 5.62353 67.9253 5.53309 68.0217 5.44477C68.0595 5.52889 68.0993 5.61301 68.1391 5.69713L67.7158 5.71816ZM71.3349 5.35433C70.4024 5.42374 69.474 5.53099 68.5456 5.63614C68.4367 5.50996 68.3361 5.38588 68.225 5.25759C68.8411 4.78861 69.3818 4.20607 70.0419 3.80018C70.4443 4.33225 70.9179 4.81595 71.3244 5.35433H71.3349ZM70.1676 3.31438C69.9686 3.32699 69.8638 3.15665 69.759 3.01785C69.9329 3.05991 70.2536 3.02205 70.1572 3.31438H70.1676ZM68.8663 2.9169C69.2854 2.87694 69.5369 3.25759 69.8009 3.51627C69.2288 4.04834 68.6148 4.52784 68.0154 5.02626C67.6445 4.62668 67.2841 4.21869 66.9236 3.80859C67.4412 3.31648 68.093 2.83278 68.8558 2.9169H68.8663ZM67.0598 3.24287C66.9404 3.36064 66.8168 3.47421 66.6952 3.58988C66.5632 3.45318 66.4291 3.31438 66.3012 3.16927C66.5557 3.17174 66.8096 3.19637 67.0598 3.24287ZM62.1603 3.04519C63.1871 2.85381 64.2391 2.90428 65.2765 2.96317C65.7752 2.94845 66.0854 3.4027 66.3913 3.73078C66.3913 3.76443 66.3704 3.83173 66.3641 3.86538C65.6432 4.49629 64.8972 5.08094 64.1909 5.72447C63.4617 5.1924 62.724 4.67295 61.9759 4.16191C61.8879 4.0883 61.7663 4.03783 61.7181 3.92847C61.8459 3.62352 62.0304 3.34172 62.1645 3.04519H62.1603ZM61.8019 3.10617C61.6804 3.33611 61.563 3.56744 61.4499 3.80018C61.2403 3.63825 61.0182 3.48262 60.7981 3.3312C61.1334 3.24077 61.4687 3.16716 61.8061 3.10617H61.8019ZM60.3958 3.46369C60.7038 3.65297 60.9993 3.86117 61.299 4.06096C61.2214 4.25865 61.1376 4.45423 61.0517 4.64771C60.5131 4.43741 60.0919 3.99366 59.6476 3.62773L60.3958 3.46369ZM58.9687 3.90323C59.1232 3.95437 59.2867 3.97228 59.4486 3.95581C59.9389 4.26706 60.4021 4.62668 60.8757 4.96527C60.532 5.72027 60.1883 6.47736 59.8279 7.22184C58.9309 7.41322 58.0487 7.65928 57.1664 7.90533C57.7804 6.57831 58.34 5.22395 58.9728 3.90323H58.9687ZM65.2555 15.3102C62.9503 15.5731 60.6451 15.8086 58.3274 16.0357C57.6505 16.1072 56.9715 16.143 56.2925 16.1598C58.0613 15.0515 60.1653 14.6877 62.198 14.3848C63.1826 14.2283 64.177 14.1412 65.1738 14.1241C67.7891 13.9705 70.4003 13.7728 73.0135 13.6446C73.8036 13.6088 74.5936 13.5331 75.3857 13.5752C72.0328 14.2376 68.6609 14.8475 65.2681 15.3102H65.2555ZM96.8554 13.2492C92.0606 13.8906 87.2386 14.2818 82.4186 14.654C80.2958 14.7634 78.1708 14.8938 76.0459 14.919C79.6084 14.5573 83.1563 14.1135 86.7126 13.7119C89.1749 13.4279 91.6394 13.1566 94.108 12.9211C96.3336 12.6729 98.5591 12.4332 100.789 12.2166C104.752 11.7728 108.717 11.3249 112.682 10.8959C107.424 11.81 102.149 12.5944 96.8554 13.2492ZM115.429 8.85381C115.05 9.18609 114.71 9.56674 114.274 9.82542C112.598 9.77074 110.921 9.49314 109.245 9.61511C109.978 8.97158 110.653 8.26285 111.34 7.56254C112.737 7.6088 114.134 7.70064 115.532 7.83804C115.779 7.85333 116.022 7.91317 116.248 8.01469C116.004 8.32166 115.73 8.60283 115.429 8.85381Z" fill="url(#paint0_linear_226_4928)"/>
<path d="M53.4383 27.9474C57.5541 26.1135 62.1519 25.6193 66.6114 25.9327C68.8018 26.0637 70.9816 26.3363 73.1372 26.7487C77.5945 27.4679 81.9388 28.7487 86.4024 29.4406C81.6181 29.3733 76.9868 28.0273 72.2926 27.2555C70.197 26.9064 68.0909 26.612 65.9764 26.4311C62.073 26.1447 58.15 26.5635 54.3939 27.6677C54.0805 27.7776 53.7615 27.871 53.4383 27.9474Z" fill="#0D3A5B"/>
<path d="M106.508 18.633C106.692 18.6898 106.688 18.9064 106.753 19.0536C107.235 20.6162 107.422 22.3386 106.927 23.9264C106.508 25.2576 105.506 26.3238 104.368 27.0936C103.153 27.8864 101.755 28.3554 100.353 28.6814C97.9661 29.1672 95.5163 29.2029 93.0896 29.102C91.4875 29.0152 89.8915 28.8376 88.3094 28.5699C85.6166 28.103 82.9489 27.5058 80.2539 27.041C76.9512 26.3996 73.6275 25.8338 70.2745 25.5016C67.4287 25.1672 64.564 24.9253 61.6951 25.0284C59.8614 25.1314 58.0215 25.2282 56.215 25.5836C54.5058 25.8893 52.8353 26.383 51.2337 27.0557C50.6679 27.2828 50.1419 27.6025 49.5803 27.8401C50.8628 26.7634 52.3381 25.9474 53.8302 25.2134C54.8026 24.8643 55.7519 24.45 56.7515 24.1766C58.4783 23.6918 60.2356 23.3237 62.0115 23.0746C66.7434 22.3996 71.5403 22.5594 76.2911 22.8917C79.0154 23.102 81.6999 23.4952 84.4074 23.7792C85.9812 23.9895 87.5508 24.2397 89.1267 24.4879C91.367 24.7907 93.5736 25.3291 95.8327 25.4595C97.6407 25.6464 99.467 25.5355 101.239 25.1314C102.838 24.7108 104.383 23.8296 105.345 22.4563C106.149 21.3585 106.458 19.9789 106.508 18.633Z" fill="#35ADD5"/>
<path d="M8.14987 38.3869C9.91647 38.3869 11.3289 39.7119 11.6118 41.6256H15.1744C15.1667 40.6602 14.968 39.7058 14.5897 38.8181C14.5023 38.8308 14.414 38.8371 14.3257 38.837C13.9926 38.8382 13.667 38.7385 13.3914 38.5508C13.1159 38.3632 12.9032 38.0964 12.7812 37.7855V37.756C12.6764 37.4469 12.5716 37.1377 12.4857 36.8286C12.0666 36.9695 11.6286 37.1041 11.199 37.2387L10.4257 37.4826C10.2801 37.5329 10.127 37.5578 9.97306 37.5562C9.69066 37.5587 9.41339 37.4805 9.17355 37.3309C8.93372 37.1812 8.7412 36.9663 8.61843 36.7111C8.49566 36.4558 8.44769 36.1709 8.48013 35.8893C8.51256 35.6078 8.62405 35.3413 8.80161 35.1209L8.82047 35.0957C8.91686 34.9821 9.01745 34.8685 9.11385 34.7571C8.70386 34.6958 8.28985 34.6656 7.87534 34.6667C2.54408 34.6751 0 38.551 0 44.0147C0 49.4784 2.54408 53.3501 7.86905 53.3501C11.966 53.3501 15.0989 50.5384 15.1681 46.3996H11.6055C11.3226 48.3154 9.91019 49.6383 8.14358 49.6383C5.18247 49.632 4.07598 46.6877 4.07598 44.0147C4.07598 41.3417 5.18247 38.3869 8.14987 38.3869Z" fill="#35ADD5"/>
<path d="M27.0649 38.7444L26.1953 39.0199C25.1429 39.3032 24.0576 39.4446 22.968 39.4406H22.8926C21.8539 39.4557 20.8185 39.3204 19.8183 39.0389L15.2855 52.9716H19.5018L20.8682 48.3848H26.1198L27.4883 52.9716H31.7025L27.0649 38.7444ZM21.8573 45.0767L23.4835 39.6088L25.1328 45.0767H21.8573Z" fill="#35ADD5"/>
<path d="M41.1727 35.0536H35.5669C35.5706 35.1858 35.5537 35.3178 35.5166 35.4448C35.4584 35.6573 35.3473 35.8514 35.1937 36.0089C35.0401 36.1664 34.849 36.282 34.6385 36.3449L32.8321 36.9169V52.9716H36.7907V46.2418H41.1727C44.3035 46.2418 46.5186 43.9726 46.5186 40.7339C46.5228 37.3228 44.3517 35.0536 41.1727 35.0536ZM39.9446 42.9253H36.7907V38.3869H39.9446C41.64 38.3869 42.4196 39.2134 42.4196 40.7003C42.4196 42.0988 41.596 42.9253 39.9446 42.9253Z" fill="#35ADD5"/>
<path d="M46.7512 35.0536V38.3869H51.6046V52.9716H55.5612V38.3869H60.4125V35.0536H46.7512Z" fill="#35ADD5"/>
<path d="M72.9905 35.0536L70.1635 46.2355L67.3386 35.0536H61.5421V52.9716H65.4986V41.3186L68.4451 52.9716H71.8609L74.7948 41.3186V52.9716H78.7513V35.0536H72.9905Z" fill="#35ADD5"/>
<path d="M90.4889 35.0536H85.757L79.9144 52.9716H84.1308L85.5013 48.3848H90.7403L92.1067 52.9716H96.3231L90.4889 35.0536ZM86.4862 45.0767L88.1124 39.6088L89.7596 45.0767H86.4862Z" fill="#35ADD5"/>
<path d="M94.2589 35.0536V38.3869H99.1103V52.9716H103.067V38.3869H107.924V35.0536H94.2589Z" fill="#35ADD5"/>
<path d="M116.28 49.632C113.314 49.632 112.206 46.6772 112.206 44.0084C112.206 41.3396 113.314 38.3806 116.28 38.3806C118.046 38.3806 119.459 39.7056 119.742 41.6193H123.304C123.233 37.4805 120.102 34.6688 116.001 34.6688C110.678 34.6688 108.134 38.5447 108.134 44.0084C108.134 49.4721 110.678 53.3438 116.001 53.3438C120.102 53.3438 123.233 50.5321 123.304 46.3933H119.742C119.45 48.3155 118.046 49.632 116.28 49.632Z" fill="#35ADD5"/>
<path d="M136.018 35.0536V42.2397H128.998V35.0536H125.041V52.9716H128.998V45.5478H136.018V52.9716H140V35.0536H136.018Z" fill="#35ADD5"/>
<path d="M24.1646 20.532C24.8928 20.0473 25.741 19.7757 26.6144 19.7476C27.5412 19.7453 28.4506 20 29.2423 20.4836C29.9598 20.9816 30.5201 21.6756 30.8566 22.4833C31.1931 23.291 31.2918 24.1787 31.1409 25.0409C30.9043 25.9142 30.6081 26.77 30.2545 27.6025C30.0449 28.0714 29.871 28.5551 29.6383 29.0094C28.0478 29.4973 26.4446 29.9558 24.8897 30.5467C23.6973 31.0262 22.5258 31.552 21.3502 32.0693C18.2738 33.4384 15.1995 34.837 12.1273 36.2334C11.3373 36.4963 10.5389 36.7381 9.74463 36.9926C9.56168 37.0518 9.36323 37.04 9.18858 36.9593C9.01394 36.8787 8.87583 36.7352 8.8016 36.5573C8.74723 36.4293 8.72902 36.2888 8.74899 36.1512C8.76895 36.0135 8.82631 35.8841 8.91476 35.777C10.8972 33.4931 12.8566 31.1966 14.8789 28.9463C15.7828 27.927 16.7251 26.9456 17.7059 26.002C19.0555 24.6897 20.4532 23.4258 21.9076 22.2313C22.6327 21.6319 23.3766 21.0515 24.1646 20.532ZM25.7091 22.063C25.5166 22.211 25.3836 22.4235 25.3344 22.6617C25.2851 22.9 25.3229 23.148 25.4408 23.3606C25.535 23.5295 25.675 23.6681 25.8445 23.7604C26.014 23.8527 26.2061 23.8949 26.3985 23.8822C26.4782 24.1303 26.5536 24.3785 26.6353 24.6245C26.3692 24.736 26.0842 24.7844 25.8264 24.9106C25.8031 24.9442 25.7888 24.9833 25.7848 25.0241C25.7808 25.0649 25.7874 25.1061 25.8038 25.1436C25.8202 25.1812 25.8459 25.2139 25.8785 25.2386C25.911 25.2634 25.9494 25.2793 25.9899 25.2849C26.256 25.2281 26.5075 25.1251 26.7694 25.0494C26.9357 25.5863 27.104 26.1219 27.2745 26.6561C26.6605 26.4605 26.0423 26.2796 25.4262 26.0883C25.3766 26.0609 25.319 26.0522 25.2636 26.0638C25.2083 26.0754 25.1589 26.1064 25.1244 26.1514C25.1053 26.1789 25.0925 26.2103 25.0867 26.2433C25.0809 26.2763 25.0824 26.3102 25.091 26.3426C25.0995 26.375 25.115 26.4052 25.1363 26.431C25.1577 26.4568 25.1843 26.4776 25.2145 26.4921C25.9731 26.7024 26.7233 26.9484 27.4799 27.1734C27.5569 27.1948 27.6374 27.2006 27.7167 27.1903C28.1903 26.593 28.6576 25.9915 29.1249 25.3901C29.1983 25.2828 29.3345 25.1798 29.3051 25.0346C29.3001 24.9918 29.282 24.9515 29.2534 24.9193C29.2247 24.887 29.1869 24.8645 29.145 24.8546C29.1031 24.8447 29.0592 24.848 29.0192 24.864C28.9793 24.8801 28.9452 24.9081 28.9216 24.9442C28.5025 25.4679 28.1023 25.9957 27.6873 26.5194C27.5218 25.9852 27.352 25.4531 27.1844 24.919L27.964 24.6687C28.008 24.6074 28.0321 24.534 28.0331 24.4584C28.0331 24.3638 27.9325 24.3175 27.8676 24.2628C27.5888 24.3238 27.3227 24.4353 27.0461 24.4984C26.9769 24.2502 26.8931 24.0041 26.8176 23.756C26.9561 23.6719 27.0726 23.556 27.1575 23.4177C27.2425 23.2795 27.2933 23.1229 27.3059 22.961C27.3222 22.7647 27.2808 22.5679 27.187 22.3949C27.0932 22.2219 26.9509 22.0802 26.7778 21.9873C26.6113 21.8956 26.4219 21.854 26.2323 21.8674C26.0428 21.8808 25.8611 21.9487 25.7091 22.063Z" fill="url(#paint1_linear_226_4928)"/>
<path d="M25.9857 22.3953C26.0916 22.3205 26.2197 22.2837 26.3491 22.2912C26.4785 22.2986 26.6016 22.3497 26.6984 22.4363C26.7951 22.5228 26.8599 22.6396 26.882 22.7678C26.9042 22.8959 26.8826 23.0278 26.8206 23.1421C26.7586 23.2563 26.6599 23.3461 26.5406 23.3969C26.4213 23.4477 26.2884 23.4565 26.1635 23.4219C26.0385 23.3873 25.929 23.3113 25.8526 23.2062C25.7761 23.1012 25.7374 22.9733 25.7426 22.8433C25.7469 22.7551 25.771 22.669 25.8131 22.5914C25.8552 22.5139 25.9142 22.4468 25.9857 22.3953Z" fill="url(#paint2_linear_226_4928)"/>
<path d="M24.0452 31.3754C25.8872 30.5636 27.8298 30.0252 29.7494 29.4406C29.8731 29.8254 29.9904 30.2145 30.1162 30.6014C27.6622 31.3838 25.1998 32.143 22.7438 32.9148C20.3401 33.6593 17.9427 34.4269 15.539 35.1629C18.366 33.8864 21.193 32.5972 24.0452 31.3754Z" fill="url(#paint3_linear_226_4928)"/>
<path d="M12.7267 36.5131C18.5693 34.6905 24.4091 32.8622 30.2461 31.0284C30.4529 31.6957 30.6624 32.3624 30.8748 33.0284C25.3423 34.7865 19.8085 36.5391 14.2733 38.286C14.0497 38.3573 13.8076 38.3421 13.5946 38.2432C13.3817 38.1443 13.2134 37.969 13.1228 37.7518C12.9929 37.3459 12.8587 36.9295 12.7267 36.5131Z" fill="url(#paint4_linear_226_4928)"/>
<path d="M17.7562 37.5352L31.099 33.3038C32.2935 33.7686 33.4859 34.2397 34.6783 34.7066C34.8161 34.758 34.9292 34.86 34.9949 34.992C35.0607 35.1239 35.0741 35.2759 35.0325 35.4174C35.0071 35.5112 34.9581 35.5968 34.8902 35.666C34.8223 35.7353 34.7378 35.7858 34.6448 35.8128L25.9731 38.5615C24.9614 38.8314 23.9184 38.9651 22.8716 38.9589C21.4047 38.9589 19.9084 38.7486 18.5965 38.0714C18.3011 37.9182 18.0198 37.7387 17.7562 37.5352Z" fill="url(#paint5_linear_226_4928)"/>
<path d="M36.3004 57.5365C36.3004 57.3077 36.352 57.1024 36.4552 56.9207C36.5584 56.7368 36.6986 56.5932 36.8758 56.49C37.0553 56.3868 37.2538 56.3352 37.4714 56.3352C37.7271 56.3352 37.9503 56.3969 38.141 56.5203C38.3317 56.6437 38.4708 56.8186 38.5583 57.0452H38.1915C38.1264 56.9039 38.0322 56.7951 37.9088 56.7188C37.7877 56.6425 37.6419 56.6044 37.4714 56.6044C37.3076 56.6044 37.1607 56.6425 37.0306 56.7188C36.9005 56.7951 36.7984 56.9039 36.7244 57.0452C36.6504 57.1843 36.6134 57.348 36.6134 57.5365C36.6134 57.7227 36.6504 57.8864 36.7244 58.0277C36.7984 58.1668 36.9005 58.2745 37.0306 58.3508C37.1607 58.427 37.3076 58.4652 37.4714 58.4652C37.6419 58.4652 37.7877 58.4282 37.9088 58.3541C38.0322 58.2779 38.1264 58.1691 38.1915 58.0277H38.5583C38.4708 58.2521 38.3317 58.4259 38.141 58.5493C37.9503 58.6704 37.7271 58.731 37.4714 58.731C37.2538 58.731 37.0553 58.6805 36.8758 58.5796C36.6986 58.4764 36.5584 58.3339 36.4552 58.1522C36.352 57.9705 36.3004 57.7653 36.3004 57.5365ZM39.8183 58.7411C39.6455 58.7411 39.4885 58.7018 39.3472 58.6233C39.2081 58.5448 39.0982 58.4338 39.0174 58.2902C38.9389 58.1444 38.8997 57.9762 38.8997 57.7855C38.8997 57.597 38.94 57.431 39.0208 57.2875C39.1038 57.1417 39.216 57.0306 39.3573 56.9543C39.4986 56.8758 39.6568 56.8366 39.8317 56.8366C40.0067 56.8366 40.1649 56.8758 40.3062 56.9543C40.4475 57.0306 40.5585 57.1405 40.6393 57.2841C40.7223 57.4277 40.7638 57.5948 40.7638 57.7855C40.7638 57.9762 40.7212 58.1444 40.6359 58.2902C40.5529 58.4338 40.4397 58.5448 40.2961 58.6233C40.1525 58.7018 39.9932 58.7411 39.8183 58.7411ZM39.8183 58.4719C39.9282 58.4719 40.0314 58.4461 40.1278 58.3945C40.2243 58.3429 40.3017 58.2655 40.36 58.1623C40.4206 58.0592 40.4509 57.9335 40.4509 57.7855C40.4509 57.6374 40.4217 57.5118 40.3634 57.4086C40.3051 57.3054 40.2288 57.2291 40.1346 57.1798C40.0404 57.1282 39.9383 57.1024 39.8284 57.1024C39.7162 57.1024 39.613 57.1282 39.5188 57.1798C39.4268 57.2291 39.3528 57.3054 39.2967 57.4086C39.2406 57.5118 39.2126 57.6374 39.2126 57.7855C39.2126 57.9358 39.2395 58.0625 39.2933 58.1657C39.3494 58.2689 39.4235 58.3463 39.5154 58.3979C39.6074 58.4472 39.7084 58.4719 39.8183 58.4719ZM42.0648 56.8332C42.2892 56.8332 42.4709 56.9016 42.6099 57.0385C42.749 57.1731 42.8186 57.3682 42.8186 57.624V58.7108H42.5157V57.6677C42.5157 57.4838 42.4697 57.3436 42.3778 57.2471C42.2858 57.1484 42.1602 57.099 42.0009 57.099C41.8394 57.099 41.7104 57.1495 41.6139 57.2505C41.5197 57.3514 41.4726 57.4983 41.4726 57.6913V58.7108H41.1664V56.8669H41.4726V57.1293C41.5332 57.0351 41.6151 56.9622 41.7182 56.9106C41.8237 56.859 41.9392 56.8332 42.0648 56.8332ZM44.2172 56.8332C44.4415 56.8332 44.6232 56.9016 44.7623 57.0385C44.9014 57.1731 44.9709 57.3682 44.9709 57.624V58.7108H44.6681V57.6677C44.6681 57.4838 44.6221 57.3436 44.5301 57.2471C44.4381 57.1484 44.3125 57.099 44.1532 57.099C43.9917 57.099 43.8627 57.1495 43.7663 57.2505C43.6721 57.3514 43.6249 57.4983 43.6249 57.6913V58.7108H43.3187V56.8669H43.6249V57.1293C43.6855 57.0351 43.7674 56.9622 43.8706 56.9106C43.976 56.859 44.0915 56.8332 44.2172 56.8332ZM47.1535 57.7182C47.1535 57.7765 47.1502 57.8382 47.1434 57.9032H45.6696C45.6808 58.0849 45.7425 58.2274 45.8547 58.3306C45.9691 58.4315 46.107 58.482 46.2686 58.482C46.4009 58.482 46.5108 58.4517 46.5983 58.3912C46.688 58.3283 46.7509 58.2453 46.7868 58.1422H47.1165C47.0672 58.3194 46.9685 58.4641 46.8204 58.5762C46.6723 58.6861 46.4884 58.7411 46.2686 58.7411C46.0936 58.7411 45.9366 58.7018 45.7975 58.6233C45.6606 58.5448 45.553 58.4338 45.4744 58.2902C45.3959 58.1444 45.3567 57.9762 45.3567 57.7855C45.3567 57.5948 45.3948 57.4277 45.4711 57.2841C45.5474 57.1405 45.6539 57.0306 45.7907 56.9543C45.9298 56.8758 46.0891 56.8366 46.2686 56.8366C46.4435 56.8366 46.5983 56.8747 46.7329 56.951C46.8675 57.0273 46.9707 57.1327 47.0425 57.2673C47.1165 57.3996 47.1535 57.5499 47.1535 57.7182ZM46.8372 57.6542C46.8372 57.5376 46.8114 57.4378 46.7598 57.3548C46.7082 57.2695 46.6376 57.2056 46.5478 57.163C46.4604 57.1181 46.3628 57.0957 46.2551 57.0957C46.1003 57.0957 45.968 57.145 45.858 57.2437C45.7504 57.3424 45.6887 57.4793 45.673 57.6542H46.8372ZM47.4433 57.7855C47.4433 57.5948 47.4814 57.4288 47.5577 57.2875C47.634 57.1439 47.7394 57.0329 47.874 56.9543C48.0108 56.8758 48.1667 56.8366 48.3417 56.8366C48.5683 56.8366 48.7545 56.8915 48.9003 57.0015C49.0483 57.1114 49.1459 57.2639 49.193 57.4591H48.8633C48.8319 57.3469 48.7702 57.2583 48.6782 57.1933C48.5885 57.1282 48.4763 57.0957 48.3417 57.0957C48.1667 57.0957 48.0254 57.1562 47.9177 57.2774C47.8101 57.3963 47.7562 57.5656 47.7562 57.7855C47.7562 58.0076 47.8101 58.1792 47.9177 58.3003C48.0254 58.4214 48.1667 58.482 48.3417 58.482C48.4763 58.482 48.5885 58.4506 48.6782 58.3878C48.7679 58.325 48.8296 58.2352 48.8633 58.1186H49.193C49.1437 58.307 49.045 58.4584 48.8969 58.5729C48.7489 58.685 48.5638 58.7411 48.3417 58.7411C48.1667 58.7411 48.0108 58.7018 47.874 58.6233C47.7394 58.5448 47.634 58.4338 47.5577 58.2902C47.4814 58.1466 47.4433 57.9784 47.4433 57.7855ZM49.9751 57.1192V58.2061C49.9751 58.2958 49.9942 58.3597 50.0323 58.3979C50.0704 58.4338 50.1366 58.4517 50.2308 58.4517H50.4563V58.7108H50.1804C50.0099 58.7108 49.882 58.6716 49.7968 58.593C49.7115 58.5145 49.6689 58.3855 49.6689 58.2061V57.1192H49.43V56.8669H49.6689V56.4025H49.9751V56.8669H50.4563V57.1192H49.9751ZM50.9854 56.5674C50.9271 56.5674 50.8778 56.5472 50.8374 56.5068C50.797 56.4664 50.7768 56.4171 50.7768 56.3588C50.7768 56.3004 50.797 56.2511 50.8374 56.2107C50.8778 56.1703 50.9271 56.1501 50.9854 56.1501C51.0415 56.1501 51.0886 56.1703 51.1268 56.2107C51.1671 56.2511 51.1873 56.3004 51.1873 56.3588C51.1873 56.4171 51.1671 56.4664 51.1268 56.5068C51.0886 56.5472 51.0415 56.5674 50.9854 56.5674ZM51.1335 56.8669V58.7108H50.8273V56.8669H51.1335ZM52.5538 56.8332C52.7781 56.8332 52.9598 56.9016 53.0989 57.0385C53.238 57.1731 53.3075 57.3682 53.3075 57.624V58.7108H53.0047V57.6677C53.0047 57.4838 52.9587 57.3436 52.8667 57.2471C52.7747 57.1484 52.6491 57.099 52.4899 57.099C52.3283 57.099 52.1994 57.1495 52.1029 57.2505C52.0087 57.3514 51.9616 57.4983 51.9616 57.6913V58.7108H51.6554V56.8669H51.9616V57.1293C52.0221 57.0351 52.104 56.9622 52.2072 56.9106C52.3126 56.859 52.4282 56.8332 52.5538 56.8332ZM54.5682 56.8366C54.7274 56.8366 54.8665 56.8713 54.9854 56.9409C55.1065 57.0104 55.1963 57.0979 55.2546 57.2033V56.8669H55.5642V58.7512C55.5642 58.9194 55.5283 59.0686 55.4565 59.1987C55.3847 59.3311 55.2815 59.4343 55.1469 59.5083C55.0146 59.5823 54.8598 59.6193 54.6826 59.6193C54.4403 59.6193 54.2384 59.5621 54.0769 59.4477C53.9154 59.3333 53.82 59.1774 53.7909 58.98H54.0937C54.1274 59.0922 54.1969 59.1819 54.3023 59.2492C54.4078 59.3187 54.5345 59.3535 54.6826 59.3535C54.8508 59.3535 54.9877 59.3008 55.0931 59.1954C55.2008 59.0899 55.2546 58.9419 55.2546 58.7512V58.3642C55.194 58.4719 55.1043 58.5616 54.9854 58.6334C54.8665 58.7052 54.7274 58.7411 54.5682 58.7411C54.4044 58.7411 54.2552 58.7007 54.1206 58.62C53.9883 58.5392 53.884 58.4259 53.8077 58.2801C53.7314 58.1343 53.6933 57.9683 53.6933 57.7821C53.6933 57.5937 53.7314 57.4288 53.8077 57.2875C53.884 57.1439 53.9883 57.0329 54.1206 56.9543C54.2552 56.8758 54.4044 56.8366 54.5682 56.8366ZM55.2546 57.7855C55.2546 57.6464 55.2266 57.5253 55.1705 57.4221C55.1144 57.3189 55.0381 57.2404 54.9417 57.1865C54.8475 57.1304 54.7431 57.1024 54.6287 57.1024C54.5143 57.1024 54.41 57.1293 54.3158 57.1832C54.2216 57.237 54.1464 57.3155 54.0904 57.4187C54.0343 57.5219 54.0062 57.643 54.0062 57.7821C54.0062 57.9234 54.0343 58.0468 54.0904 58.1522C54.1464 58.2554 54.2216 58.3351 54.3158 58.3912C54.41 58.445 54.5143 58.4719 54.6287 58.4719C54.7431 58.4719 54.8475 58.445 54.9417 58.3912C55.0381 58.3351 55.1144 58.2554 55.1705 58.1522C55.2266 58.0468 55.2546 57.9246 55.2546 57.7855ZM56.8643 57.5365C56.8643 57.3077 56.9159 57.1024 57.0191 56.9207C57.1223 56.7368 57.2625 56.5932 57.4397 56.49C57.6192 56.3868 57.8177 56.3352 58.0353 56.3352C58.291 56.3352 58.5142 56.3969 58.7049 56.5203C58.8956 56.6437 59.0347 56.8186 59.1221 57.0452H58.7554C58.6903 56.9039 58.5961 56.7951 58.4727 56.7188C58.3516 56.6425 58.2058 56.6044 58.0353 56.6044C57.8715 56.6044 57.7246 56.6425 57.5945 56.7188C57.4644 56.7951 57.3623 56.9039 57.2883 57.0452C57.2143 57.1843 57.1772 57.348 57.1772 57.5365C57.1772 57.7227 57.2143 57.8864 57.2883 58.0277C57.3623 58.1668 57.4644 58.2745 57.5945 58.3508C57.7246 58.427 57.8715 58.4652 58.0353 58.4652C58.2058 58.4652 58.3516 58.4282 58.4727 58.3541C58.5961 58.2779 58.6903 58.1691 58.7554 58.0277H59.1221C59.0347 58.2521 58.8956 58.4259 58.7049 58.5493C58.5142 58.6704 58.291 58.731 58.0353 58.731C57.8177 58.731 57.6192 58.6805 57.4397 58.5796C57.2625 58.4764 57.1223 58.3339 57.0191 58.1522C56.9159 57.9705 56.8643 57.7653 56.8643 57.5365ZM59.4635 57.7821C59.4635 57.5937 59.5017 57.4288 59.5779 57.2875C59.6542 57.1439 59.7585 57.0329 59.8909 56.9543C60.0255 56.8758 60.1747 56.8366 60.3384 56.8366C60.4999 56.8366 60.6401 56.8713 60.759 56.9409C60.8779 57.0104 60.9665 57.0979 61.0248 57.2033V56.8669H61.3344V58.7108H61.0248V58.3676C60.9643 58.4753 60.8734 58.565 60.7523 58.6368C60.6334 58.7063 60.4943 58.7411 60.335 58.7411C60.1713 58.7411 60.0232 58.7007 59.8909 58.62C59.7585 58.5392 59.6542 58.4259 59.5779 58.2801C59.5017 58.1343 59.4635 57.9683 59.4635 57.7821ZM61.0248 57.7855C61.0248 57.6464 60.9968 57.5253 60.9407 57.4221C60.8846 57.3189 60.8084 57.2404 60.7119 57.1865C60.6177 57.1304 60.5134 57.1024 60.399 57.1024C60.2846 57.1024 60.1803 57.1293 60.086 57.1832C59.9918 57.237 59.9167 57.3155 59.8606 57.4187C59.8045 57.5219 59.7765 57.643 59.7765 57.7821C59.7765 57.9234 59.8045 58.0468 59.8606 58.1522C59.9167 58.2554 59.9918 58.3351 60.086 58.3912C60.1803 58.445 60.2846 58.4719 60.399 58.4719C60.5134 58.4719 60.6177 58.445 60.7119 58.3912C60.8084 58.3351 60.8846 58.2554 60.9407 58.1522C60.9968 58.0468 61.0248 57.9246 61.0248 57.7855ZM62.1581 57.2067C62.2186 57.1013 62.3084 57.0138 62.4273 56.9443C62.5484 56.8725 62.6886 56.8366 62.8479 56.8366C63.0116 56.8366 63.1597 56.8758 63.292 56.9543C63.4266 57.0329 63.5321 57.1439 63.6083 57.2875C63.6846 57.4288 63.7227 57.5937 63.7227 57.7821C63.7227 57.9683 63.6846 58.1343 63.6083 58.2801C63.5321 58.4259 63.4266 58.5392 63.292 58.62C63.1597 58.7007 63.0116 58.7411 62.8479 58.7411C62.6908 58.7411 62.5518 58.7063 62.4306 58.6368C62.3117 58.565 62.2209 58.4764 62.1581 58.371V59.5857H61.8519V56.8669H62.1581V57.2067ZM63.4098 57.7821C63.4098 57.643 63.3818 57.5219 63.3257 57.4187C63.2696 57.3155 63.1933 57.237 63.0969 57.1832C63.0027 57.1293 62.8983 57.1024 62.7839 57.1024C62.6718 57.1024 62.5675 57.1304 62.471 57.1865C62.3768 57.2404 62.3005 57.32 62.2422 57.4254C62.1861 57.5286 62.1581 57.6486 62.1581 57.7855C62.1581 57.9246 62.1861 58.0468 62.2422 58.1522C62.3005 58.2554 62.3768 58.3351 62.471 58.3912C62.5675 58.445 62.6718 58.4719 62.7839 58.4719C62.8983 58.4719 63.0027 58.445 63.0969 58.3912C63.1933 58.3351 63.2696 58.2554 63.3257 58.1522C63.3818 58.0468 63.4098 57.9234 63.4098 57.7821ZM64.4993 57.1192V58.2061C64.4993 58.2958 64.5184 58.3597 64.5565 58.3979C64.5946 58.4338 64.6608 58.4517 64.755 58.4517H64.9805V58.7108H64.7046C64.5341 58.7108 64.4062 58.6716 64.321 58.593C64.2357 58.5145 64.1931 58.3855 64.1931 58.2061V57.1192H63.9542V56.8669H64.1931V56.4025H64.4993V56.8669H64.9805V57.1192H64.4993ZM65.2371 57.7821C65.2371 57.5937 65.2752 57.4288 65.3515 57.2875C65.4277 57.1439 65.5321 57.0329 65.6644 56.9543C65.799 56.8758 65.9482 56.8366 66.1119 56.8366C66.2735 56.8366 66.4137 56.8713 66.5325 56.9409C66.6514 57.0104 66.74 57.0979 66.7984 57.2033V56.8669H67.1079V58.7108H66.7984V58.3676C66.7378 58.4753 66.647 58.565 66.5258 58.6368C66.4069 58.7063 66.2678 58.7411 66.1086 58.7411C65.9448 58.7411 65.7968 58.7007 65.6644 58.62C65.5321 58.5392 65.4277 58.4259 65.3515 58.2801C65.2752 58.1343 65.2371 57.9683 65.2371 57.7821ZM66.7984 57.7855C66.7984 57.6464 66.7703 57.5253 66.7143 57.4221C66.6582 57.3189 66.5819 57.2404 66.4854 57.1865C66.3912 57.1304 66.2869 57.1024 66.1725 57.1024C66.0581 57.1024 65.9538 57.1293 65.8596 57.1832C65.7654 57.237 65.6902 57.3155 65.6341 57.4187C65.578 57.5219 65.55 57.643 65.55 57.7821C65.55 57.9234 65.578 58.0468 65.6341 58.1522C65.6902 58.2554 65.7654 58.3351 65.8596 58.3912C65.9538 58.445 66.0581 58.4719 66.1725 58.4719C66.2869 58.4719 66.3912 58.445 66.4854 58.3912C66.5819 58.3351 66.6582 58.2554 66.7143 58.1522C66.7703 58.0468 66.7984 57.9246 66.7984 57.7855ZM67.7835 56.5674C67.7252 56.5674 67.6759 56.5472 67.6355 56.5068C67.5951 56.4664 67.5749 56.4171 67.5749 56.3588C67.5749 56.3004 67.5951 56.2511 67.6355 56.2107C67.6759 56.1703 67.7252 56.1501 67.7835 56.1501C67.8396 56.1501 67.8867 56.1703 67.9249 56.2107C67.9653 56.2511 67.9854 56.3004 67.9854 56.3588C67.9854 56.4171 67.9653 56.4664 67.9249 56.5068C67.8867 56.5472 67.8396 56.5674 67.7835 56.5674ZM67.9316 56.8669V58.7108H67.6254V56.8669H67.9316ZM69.3519 56.8332C69.5762 56.8332 69.7579 56.9016 69.897 57.0385C70.0361 57.1731 70.1056 57.3682 70.1056 57.624V58.7108H69.8028V57.6677C69.8028 57.4838 69.7568 57.3436 69.6648 57.2471C69.5729 57.1484 69.4472 57.099 69.288 57.099C69.1264 57.099 68.9975 57.1495 68.901 57.2505C68.8068 57.3514 68.7597 57.4983 68.7597 57.6913V58.7108H68.4535V56.8669H68.7597V57.1293C68.8202 57.0351 68.9021 56.9622 69.0053 56.9106C69.1107 56.859 69.2263 56.8332 69.3519 56.8332ZM71.2586 58.7411C71.1173 58.7411 70.9905 58.7175 70.8784 58.6704C70.7662 58.6211 70.6776 58.5538 70.6125 58.4685C70.5475 58.3811 70.5116 58.2812 70.5049 58.1691H70.8212C70.8301 58.261 70.8728 58.3362 70.949 58.3945C71.0275 58.4528 71.1296 58.482 71.2552 58.482C71.3719 58.482 71.4639 58.4562 71.5312 58.4046C71.5985 58.353 71.6321 58.288 71.6321 58.2094C71.6321 58.1287 71.5962 58.0692 71.5244 58.0311C71.4526 57.9907 71.3416 57.9515 71.1913 57.9133C71.0545 57.8774 70.9423 57.8416 70.8548 57.8057C70.7696 57.7675 70.6955 57.7126 70.6327 57.6408C70.5722 57.5668 70.5419 57.4703 70.5419 57.3514C70.5419 57.2572 70.5699 57.1708 70.626 57.0923C70.6821 57.0138 70.7617 56.9521 70.8649 56.9072C70.9681 56.8601 71.0859 56.8366 71.2182 56.8366C71.4224 56.8366 71.5872 56.8882 71.7129 56.9914C71.8385 57.0946 71.9058 57.2359 71.9148 57.4153H71.6085C71.6018 57.3189 71.5626 57.2415 71.4908 57.1832C71.4212 57.1248 71.327 57.0957 71.2081 57.0957C71.0982 57.0957 71.0107 57.1192 70.9457 57.1663C70.8806 57.2134 70.8481 57.2751 70.8481 57.3514C70.8481 57.412 70.8672 57.4624 70.9053 57.5028C70.9457 57.541 70.995 57.5724 71.0533 57.597C71.1139 57.6195 71.1969 57.6453 71.3023 57.6744C71.4347 57.7103 71.5424 57.7462 71.6254 57.7821C71.7084 57.8158 71.779 57.8674 71.8374 57.9369C71.8979 58.0064 71.9293 58.0973 71.9316 58.2094C71.9316 58.3104 71.9035 58.4012 71.8475 58.482C71.7914 58.5628 71.7117 58.6267 71.6085 58.6738C71.5076 58.7187 71.391 58.7411 71.2586 58.7411ZM75.7173 56.8669L75.1419 58.7108H74.8256L74.3814 57.2471L73.9373 58.7108H73.621L73.0422 56.8669H73.3551L73.7791 58.4147L74.2367 56.8669H74.5497L74.9972 58.4181L75.4144 56.8669H75.7173ZM76.1793 56.5674C76.121 56.5674 76.0716 56.5472 76.0313 56.5068C75.9909 56.4664 75.9707 56.4171 75.9707 56.3588C75.9707 56.3004 75.9909 56.2511 76.0313 56.2107C76.0716 56.1703 76.121 56.1501 76.1793 56.1501C76.2354 56.1501 76.2825 56.1703 76.3206 56.2107C76.361 56.2511 76.3812 56.3004 76.3812 56.3588C76.3812 56.4171 76.361 56.4664 76.3206 56.5068C76.2825 56.5472 76.2354 56.5674 76.1793 56.5674ZM76.3274 56.8669V58.7108H76.0212V56.8669H76.3274ZM77.2227 57.1192V58.2061C77.2227 58.2958 77.2418 58.3597 77.2799 58.3979C77.3181 58.4338 77.3843 58.4517 77.4785 58.4517H77.7039V58.7108H77.428C77.2575 58.7108 77.1296 58.6716 77.0444 58.593C76.9592 58.5145 76.9165 58.3855 76.9165 58.2061V57.1192H76.6776V56.8669H76.9165V56.4025H77.2227V56.8669H77.7039V57.1192H77.2227ZM78.9902 56.8332C79.1293 56.8332 79.2549 56.8635 79.367 56.9241C79.4792 56.9824 79.5667 57.071 79.6295 57.1899C79.6946 57.3088 79.7271 57.4535 79.7271 57.624V58.7108H79.4242V57.6677C79.4242 57.4838 79.3783 57.3436 79.2863 57.2471C79.1943 57.1484 79.0687 57.099 78.9094 57.099C78.7479 57.099 78.6189 57.1495 78.5225 57.2505C78.4282 57.3514 78.3811 57.4983 78.3811 57.6913V58.7108H78.0749V56.2208H78.3811V57.1293C78.4417 57.0351 78.5247 56.9622 78.6301 56.9106C78.7378 56.859 78.8578 56.8332 78.9902 56.8332ZM82.7664 56.3655L82.0026 57.8259V58.7108H81.6964V57.8259L80.9292 56.3655H81.269L81.8478 57.5533L82.4266 56.3655H82.7664ZM82.975 57.7821C82.975 57.5937 83.0131 57.4288 83.0894 57.2875C83.1657 57.1439 83.27 57.0329 83.4023 56.9543C83.5369 56.8758 83.6861 56.8366 83.8498 56.8366C84.0114 56.8366 84.1516 56.8713 84.2705 56.9409C84.3893 57.0104 84.478 57.0979 84.5363 57.2033V56.8669H84.8459V58.7108H84.5363V58.3676C84.4757 58.4753 84.3849 58.565 84.2637 58.6368C84.1448 58.7063 84.0058 58.7411 83.8465 58.7411C83.6827 58.7411 83.5347 58.7007 83.4023 58.62C83.27 58.5392 83.1657 58.4259 83.0894 58.2801C83.0131 58.1343 82.975 57.9683 82.975 57.7821ZM84.5363 57.7855C84.5363 57.6464 84.5082 57.5253 84.4522 57.4221C84.3961 57.3189 84.3198 57.2404 84.2233 57.1865C84.1291 57.1304 84.0248 57.1024 83.9104 57.1024C83.796 57.1024 83.6917 57.1293 83.5975 57.1832C83.5033 57.237 83.4281 57.3155 83.372 57.4187C83.316 57.5219 83.2879 57.643 83.2879 57.7821C83.2879 57.9234 83.316 58.0468 83.372 58.1522C83.4281 58.2554 83.5033 58.3351 83.5975 58.3912C83.6917 58.445 83.796 58.4719 83.9104 58.4719C84.0248 58.4719 84.1291 58.445 84.2233 58.3912C84.3198 58.3351 84.3961 58.2554 84.4522 58.1522C84.5082 58.0468 84.5363 57.9246 84.5363 57.7855ZM85.2489 57.7855C85.2489 57.5948 85.287 57.4288 85.3633 57.2875C85.4396 57.1439 85.545 57.0329 85.6796 56.9543C85.8164 56.8758 85.9724 56.8366 86.1473 56.8366C86.3739 56.8366 86.5601 56.8915 86.7059 57.0015C86.854 57.1114 86.9515 57.2639 86.9986 57.4591H86.6689C86.6375 57.3469 86.5758 57.2583 86.4838 57.1933C86.3941 57.1282 86.2819 57.0957 86.1473 57.0957C85.9724 57.0957 85.831 57.1562 85.7234 57.2774C85.6157 57.3963 85.5618 57.5656 85.5618 57.7855C85.5618 58.0076 85.6157 58.1792 85.7234 58.3003C85.831 58.4214 85.9724 58.482 86.1473 58.482C86.2819 58.482 86.3941 58.4506 86.4838 58.3878C86.5735 58.325 86.6352 58.2352 86.6689 58.1186H86.9986C86.9493 58.307 86.8506 58.4584 86.7025 58.5729C86.5545 58.685 86.3694 58.7411 86.1473 58.7411C85.9724 58.7411 85.8164 58.7018 85.6796 58.6233C85.545 58.5448 85.4396 58.4338 85.3633 58.2902C85.287 58.1466 85.2489 57.9784 85.2489 57.7855ZM88.3225 56.8332C88.4615 56.8332 88.5872 56.8635 88.6993 56.9241C88.8115 56.9824 88.899 57.071 88.9618 57.1899C89.0268 57.3088 89.0594 57.4535 89.0594 57.624V58.7108H88.7565V57.6677C88.7565 57.4838 88.7105 57.3436 88.6186 57.2471C88.5266 57.1484 88.401 57.099 88.2417 57.099C88.0802 57.099 87.9512 57.1495 87.8547 57.2505C87.7605 57.3514 87.7134 57.4983 87.7134 57.6913V58.7108H87.4072V56.2208H87.7134V57.1293C87.774 57.0351 87.857 56.9622 87.9624 56.9106C88.0701 56.859 88.1901 56.8332 88.3225 56.8332ZM89.9331 57.1192V58.2061C89.9331 58.2958 89.9521 58.3597 89.9903 58.3979C90.0284 58.4338 90.0946 58.4517 90.1888 58.4517H90.4142V58.7108H90.1383C89.9678 58.7108 89.84 58.6716 89.7547 58.593C89.6695 58.5145 89.6268 58.3855 89.6268 58.2061V57.1192H89.3879V56.8669H89.6268V56.4025H89.9331V56.8669H90.4142V57.1192H89.9331ZM92.7456 58.7344C92.528 58.7344 92.3295 58.6839 92.15 58.583C91.9706 58.4798 91.8281 58.3373 91.7227 58.1556C91.6195 57.9717 91.5679 57.7653 91.5679 57.5365C91.5679 57.3077 91.6195 57.1024 91.7227 56.9207C91.8281 56.7368 91.9706 56.5943 92.15 56.4934C92.3295 56.3902 92.528 56.3386 92.7456 56.3386C92.9655 56.3386 93.1651 56.3902 93.3446 56.4934C93.524 56.5943 93.6653 56.7356 93.7685 56.9173C93.8717 57.099 93.9233 57.3054 93.9233 57.5365C93.9233 57.7675 93.8717 57.9739 93.7685 58.1556C93.6653 58.3373 93.524 58.4798 93.3446 58.583C93.1651 58.6839 92.9655 58.7344 92.7456 58.7344ZM92.7456 58.4685C92.9094 58.4685 93.0563 58.4304 93.1864 58.3541C93.3188 58.2779 93.422 58.1691 93.496 58.0277C93.5723 57.8864 93.6104 57.7227 93.6104 57.5365C93.6104 57.348 93.5723 57.1843 93.496 57.0452C93.422 56.9039 93.3199 56.7951 93.1898 56.7188C93.0597 56.6425 92.9116 56.6044 92.7456 56.6044C92.5796 56.6044 92.4316 56.6425 92.3015 56.7188C92.1713 56.7951 92.0682 56.9039 91.9919 57.0452C91.9179 57.1843 91.8808 57.348 91.8808 57.5365C91.8808 57.7227 91.9179 57.8864 91.9919 58.0277C92.0682 58.1691 92.1713 58.2779 92.3015 58.3541C92.4338 58.4304 92.5819 58.4685 92.7456 58.4685ZM96.7839 56.8669L96.2085 58.7108H95.8922L95.4481 57.2471L95.0039 58.7108H94.6876L94.1088 56.8669H94.4218L94.8457 58.4147L95.3034 56.8669H95.6163L96.0638 58.4181L96.4811 56.8669H96.7839ZM97.9862 56.8332C98.2106 56.8332 98.3923 56.9016 98.5313 57.0385C98.6704 57.1731 98.74 57.3682 98.74 57.624V58.7108H98.4371V57.6677C98.4371 57.4838 98.3911 57.3436 98.2992 57.2471C98.2072 57.1484 98.0816 57.099 97.9223 57.099C97.7608 57.099 97.6318 57.1495 97.5353 57.2505C97.4411 57.3514 97.394 57.4983 97.394 57.6913V58.7108H97.0878V56.8669H97.394V57.1293C97.4546 57.0351 97.5365 56.9622 97.6396 56.9106C97.7451 56.859 97.8606 56.8332 97.9862 56.8332ZM100.923 57.7182C100.923 57.7765 100.919 57.8382 100.912 57.9032H99.4387C99.4499 58.0849 99.5116 58.2274 99.6237 58.3306C99.7382 58.4315 99.8761 58.482 100.038 58.482C100.17 58.482 100.28 58.4517 100.367 58.3912C100.457 58.3283 100.52 58.2453 100.556 58.1422H100.886C100.836 58.3194 100.738 58.4641 100.589 58.5762C100.441 58.6861 100.257 58.7411 100.038 58.7411C99.8627 58.7411 99.7056 58.7018 99.5665 58.6233C99.4297 58.5448 99.322 58.4338 99.2435 58.2902C99.165 58.1444 99.1257 57.9762 99.1257 57.7855C99.1257 57.5948 99.1639 57.4277 99.2401 57.2841C99.3164 57.1405 99.423 57.0306 99.5598 56.9543C99.6989 56.8758 99.8582 56.8366 100.038 56.8366C100.213 56.8366 100.367 56.8747 100.502 56.951C100.637 57.0273 100.74 57.1327 100.812 57.2673C100.886 57.3996 100.923 57.5499 100.923 57.7182ZM100.606 57.6542C100.606 57.5376 100.58 57.4378 100.529 57.3548C100.477 57.2695 100.407 57.2056 100.317 57.163C100.229 57.1181 100.132 57.0957 100.024 57.0957C99.8694 57.0957 99.737 57.145 99.6271 57.2437C99.5194 57.3424 99.4577 57.4793 99.442 57.6542H100.606ZM101.633 57.1663C101.687 57.0609 101.763 56.979 101.862 56.9207C101.963 56.8624 102.085 56.8332 102.229 56.8332V57.1495H102.148C101.805 57.1495 101.633 57.3357 101.633 57.7081V58.7108H101.327V56.8669H101.633V57.1663ZM103.235 58.7411C103.093 58.7411 102.967 58.7175 102.855 58.6704C102.742 58.6211 102.654 58.5538 102.589 58.4685C102.524 58.3811 102.488 58.2812 102.481 58.1691H102.797C102.806 58.261 102.849 58.3362 102.925 58.3945C103.004 58.4528 103.106 58.482 103.231 58.482C103.348 58.482 103.44 58.4562 103.507 58.4046C103.575 58.353 103.608 58.288 103.608 58.2094C103.608 58.1287 103.572 58.0692 103.501 58.0311C103.429 57.9907 103.318 57.9515 103.168 57.9133C103.031 57.8774 102.919 57.8416 102.831 57.8057C102.746 57.7675 102.672 57.7126 102.609 57.6408C102.548 57.5668 102.518 57.4703 102.518 57.3514C102.518 57.2572 102.546 57.1708 102.602 57.0923C102.658 57.0138 102.738 56.9521 102.841 56.9072C102.944 56.8601 103.062 56.8366 103.194 56.8366C103.399 56.8366 103.563 56.8882 103.689 56.9914C103.815 57.0946 103.882 57.2359 103.891 57.4153H103.585C103.578 57.3189 103.539 57.2415 103.467 57.1832C103.397 57.1248 103.303 57.0957 103.184 57.0957C103.074 57.0957 102.987 57.1192 102.922 57.1663C102.857 57.2134 102.824 57.2751 102.824 57.3514C102.824 57.412 102.843 57.4624 102.881 57.5028C102.922 57.541 102.971 57.5724 103.03 57.597C103.09 57.6195 103.173 57.6453 103.279 57.6744C103.411 57.7103 103.519 57.7462 103.602 57.7821C103.685 57.8158 103.755 57.8674 103.814 57.9369C103.874 58.0064 103.906 58.0973 103.908 58.2094C103.908 58.3104 103.88 58.4012 103.824 58.482C103.768 58.5628 103.688 58.6267 103.585 58.6738C103.484 58.7187 103.367 58.7411 103.235 58.7411Z" fill="#0E314D"/>
</g>
<defs>
<linearGradient id="paint0_linear_226_4928" x1="37.4865" y1="12.7991" x2="117.447" y2="12.7991" gradientUnits="userSpaceOnUse">
<stop stop-color="#005494"/>
<stop offset="0.21" stop-color="#01508C"/>
<stop offset="0.53" stop-color="#064677"/>
<stop offset="0.92" stop-color="#0C3555"/>
<stop offset="1" stop-color="#0E314D"/>
</linearGradient>
<linearGradient id="paint1_linear_226_4928" x1="8.74083" y1="28.389" x2="31.2415" y2="28.389" gradientUnits="userSpaceOnUse">
<stop stop-color="#005494"/>
<stop offset="0.21" stop-color="#01508C"/>
<stop offset="0.53" stop-color="#064677"/>
<stop offset="0.92" stop-color="#0C3555"/>
<stop offset="1" stop-color="#0E314D"/>
</linearGradient>
<linearGradient id="paint2_linear_226_4928" x1="25.7489" y1="22.8727" x2="26.8763" y2="22.8727" gradientUnits="userSpaceOnUse">
<stop stop-color="#005494"/>
<stop offset="0.21" stop-color="#01508C"/>
<stop offset="0.53" stop-color="#064677"/>
<stop offset="0.92" stop-color="#0C3555"/>
<stop offset="1" stop-color="#0E314D"/>
</linearGradient>
<linearGradient id="paint3_linear_226_4928" x1="15.539" y1="32.3028" x2="30.1162" y2="32.3028" gradientUnits="userSpaceOnUse">
<stop stop-color="#005494"/>
<stop offset="0.21" stop-color="#01508C"/>
<stop offset="0.53" stop-color="#064677"/>
<stop offset="0.92" stop-color="#0C3555"/>
<stop offset="1" stop-color="#0E314D"/>
</linearGradient>
<linearGradient id="paint4_linear_226_4928" x1="12.7267" y1="34.6856" x2="30.8748" y2="34.6856" gradientUnits="userSpaceOnUse">
<stop stop-color="#005494"/>
<stop offset="0.21" stop-color="#01508C"/>
<stop offset="0.53" stop-color="#064677"/>
<stop offset="0.92" stop-color="#0C3555"/>
<stop offset="1" stop-color="#0E314D"/>
</linearGradient>
<linearGradient id="paint5_linear_226_4928" x1="17.7562" y1="36.1303" x2="35.0576" y2="36.1303" gradientUnits="userSpaceOnUse">
<stop stop-color="#005494"/>
<stop offset="0.21" stop-color="#01508C"/>
<stop offset="0.53" stop-color="#064677"/>
<stop offset="0.92" stop-color="#0C3555"/>
<stop offset="1" stop-color="#0E314D"/>
</linearGradient>
<clipPath id="clip0_226_4928">
<rect width="140" height="60" fill="white"/>
</clipPath>
</defs>
</svg>
