<svg width="141" height="60" viewBox="0 0 141 60" fill="none" xmlns="http://www.w3.org/2000/svg">
<g clip-path="url(#clip0_226_5126)">
<path d="M117.235 8.41217C117.491 8.11774 117.811 7.82962 117.865 7.42163C116.915 7.29966 115.954 7.29335 114.999 7.24708C112.896 7.18609 110.78 7.09145 108.669 7.06832C106.419 7.02416 104.168 7.12931 101.918 7.15665C99.0515 7.20081 96.1935 7.42373 93.3397 7.6782C92.3996 7.75812 91.4469 7.80649 90.5405 8.09881C89.489 8.39745 88.5216 8.90849 87.5605 9.41322C86.9822 9.70012 86.4262 10.0298 85.897 10.3996C85.7708 10.4947 85.6282 10.566 85.4764 10.6099L85.4343 10.5825C81.1357 10.879 76.8518 11.3522 72.5678 11.8065C69.8339 12.1535 67.0999 12.4185 64.3807 12.7907C63.3292 12.919 62.2776 13.1419 61.2261 13.2303C61.081 13.2176 60.8055 13.2828 60.8181 13.0557C61.3712 12.6351 62.0274 12.4017 62.6394 12.0946C64.1934 11.3635 65.8129 10.7805 67.4764 10.3533C72.0905 9.10617 76.9275 8.90428 81.6762 9.26811C83.0894 9.36275 84.4858 9.61091 85.897 9.73709C85.0116 9.30386 84.0841 8.96737 83.163 8.60565C80.4816 7.61301 77.6551 7.07673 74.8307 6.68767C75.0936 6.26706 75.4427 5.8822 75.653 5.42584C75.632 5.22605 75.3733 5.29124 75.2324 5.25339C74.1641 5.21974 73.0936 5.25339 72.0274 5.31438C71.4974 4.76338 71.0473 4.14087 70.4942 3.61091C70.5466 3.49111 70.6387 3.39306 70.755 3.3333C70.923 3.39873 71.0849 3.47896 71.2387 3.57305C71.8339 3.08094 72.1893 2.37431 72.6835 1.79177C72.856 1.54571 73.1504 1.2639 73.0158 0.935827C72.8341 0.752982 72.5993 0.63226 72.3449 0.590927C70.2587 0.0546498 68.0757 -0.0547088 65.9222 0.021001C64.635 0.0505302 63.3519 0.178489 62.0841 0.403756C60.813 0.670675 59.561 1.02196 58.3365 1.45528C57.9811 1.59408 57.5899 1.72657 57.3712 2.06306C57.693 2.74655 58.4606 3.04939 58.938 3.59829C58.8175 3.93785 58.677 4.27001 58.5174 4.59303C57.9895 5.73709 57.4911 6.90639 56.9611 8.03783C56.5405 8.15349 56.1073 8.3617 55.6572 8.27968C54.2966 8.03783 52.9338 7.8107 51.5584 7.66979C50.7718 7.57726 49.9727 7.61301 49.184 7.55623C47.7119 7.11669 46.2398 6.45213 44.6562 6.56779C44.2356 6.61616 43.7434 6.66033 43.4764 7.02626C43.285 7.28493 43.4364 7.61932 43.5773 7.86748C44.0274 8.61406 44.7087 9.17137 45.3018 9.79808C46.0442 10.5341 46.7592 11.3627 47.7456 11.7686C48.122 11.9453 48.5489 11.8549 48.9485 11.8633C51.5794 11.8464 54.2061 11.7287 56.8412 11.7034C56.7116 12.1015 56.5513 12.4889 56.3617 12.8622C56.2356 13.1146 55.9517 13.2113 55.7308 13.3564C54.0757 14.2629 52.7529 15.6887 51.7729 17.2828C49.836 17.4511 47.9138 17.7413 45.9853 17.9747C45.6341 17.2555 45.2871 16.5341 44.9338 15.817C44.3176 14.6056 43.8128 13.3375 43.1946 12.1283C43.0368 11.7076 42.0631 11.7644 42.3218 12.3133C42.9653 14.307 43.7603 16.2481 44.3849 18.246C43.7242 18.7069 43.1018 19.2203 42.5237 19.7813C41.597 20.7834 40.9159 21.9871 40.5342 23.2976C39.7329 23.4006 38.9233 23.4153 38.1241 23.5079C37.51 23.5794 37.4364 24.6035 38.0463 24.7339C38.713 24.7991 39.3859 24.6982 40.0547 24.7339C40.4522 24.755 40.591 25.1987 40.9085 25.3649C41.2355 25.5656 41.622 25.6466 42.0021 25.5941C46.0105 25.4511 50.019 25.3712 54.0253 25.2239C55.0011 24.8748 55.9538 24.4605 56.9569 24.1871C58.6899 23.7023 60.4534 23.3342 62.2356 23.0851C66.9842 22.4101 71.7981 22.5699 76.5657 22.9022C79.2997 23.1125 81.9937 23.5058 84.7108 23.7897L84.7866 23.7602C85.9993 23.7722 87.2116 23.7082 88.4164 23.5688C92.2008 23.1409 95.8998 22.1485 99.3901 20.6246C101.58 19.7121 103.679 18.5939 105.657 17.2849C108.288 15.6698 110.845 13.9411 113.451 12.286C114.636 11.49 115.888 10.7976 117.192 10.2166C116.7 10.1114 116.208 10.021 115.72 9.92005C116.229 9.42373 116.745 8.92952 117.235 8.41217ZM104.49 7.59198C106.713 7.54781 108.94 7.45738 111.163 7.55412C110.431 8.225 109.748 8.94845 108.991 9.59198C106.65 9.57095 104.307 9.50575 101.968 9.63194C102.667 9.00102 103.388 8.38062 104.072 7.72657C104.126 7.6731 104.192 7.63308 104.265 7.60971C104.338 7.58634 104.415 7.58027 104.49 7.59198ZM103.247 7.65507C102.538 8.32174 101.836 8.99682 101.104 9.64035C98.6562 9.70344 96.2061 9.80228 93.7603 9.9516C94.5237 9.25339 95.367 8.64771 96.1157 7.93478C98.49 7.79808 100.866 7.66979 103.247 7.65507ZM89.4511 8.9169C90.2804 8.51808 91.1728 8.26686 92.0884 8.17452C93.0515 8.11774 94.0126 8.021 94.9779 8.00838C94.2881 8.65402 93.632 9.33961 92.8875 9.92426C92.8142 9.99 92.7189 10.026 92.6204 10.0252C90.5931 10.1262 88.5657 10.2755 86.5426 10.4458C87.4628 9.84923 88.4365 9.3395 89.4511 8.92321V8.9169ZM60.469 7.09776C60.7494 6.44862 61.0473 5.80579 61.3628 5.16927C61.9664 5.62142 62.6078 6.03152 63.1903 6.51311C62.2797 6.69398 61.3838 6.95055 60.469 7.09776ZM63.6236 6.35959C62.8917 5.91795 62.2082 5.4006 61.5205 4.90008C61.5978 4.68135 61.695 4.47017 61.8107 4.26916C62.6162 4.79282 63.3817 5.37747 64.1746 5.91585C63.9811 6.06096 63.7981 6.21238 63.6131 6.35959H63.6236ZM64.3575 6.34697C64.0905 6.40586 64.2524 6.07358 64.4227 6.0883C64.6709 6.06517 64.5636 6.40586 64.3533 6.34697H64.3575ZM67.0642 5.85486C66.387 5.90533 65.7266 6.07778 65.0515 6.1556L64.7087 5.92216C65.418 5.25244 66.1621 4.62064 66.938 4.02941C67.2934 4.42689 67.6551 4.82016 67.9895 5.23446C67.6909 5.4679 67.4616 5.85696 67.0536 5.85486H67.0642ZM67.9559 5.71816C68.0568 5.62353 68.1662 5.53309 68.2629 5.44477C68.3008 5.52889 68.3407 5.61301 68.3807 5.69713L67.9559 5.71816ZM71.5878 5.35433C70.652 5.42374 69.7203 5.53099 68.7887 5.63614C68.6793 5.50996 68.5784 5.38588 68.4669 5.25759C69.0852 4.78861 69.6278 4.20607 70.2902 3.80018C70.694 4.33225 71.1693 4.81595 71.5773 5.35433H71.5878ZM70.4164 3.31438C70.2166 3.32699 70.1115 3.15665 70.0063 3.01785C70.1809 3.05991 70.5027 3.02205 70.4059 3.31438H70.4164ZM69.1104 2.9169C69.531 2.87694 69.7834 3.25759 70.0484 3.51627C69.4743 4.04834 68.8581 4.52784 68.2566 5.02626C67.8844 4.62668 67.5226 4.21869 67.1609 3.80859C67.6804 3.31648 68.3344 2.83278 69.0999 2.9169H69.1104ZM67.2976 3.24287C67.1777 3.36064 67.0537 3.47421 66.9317 3.58988C66.7992 3.45318 66.6646 3.31438 66.5363 3.16927C66.7917 3.17174 67.0464 3.19637 67.2976 3.24287ZM62.3807 3.04519C63.4112 2.85381 64.4669 2.90428 65.5079 2.96317C66.0084 2.94845 66.3197 3.4027 66.6267 3.73078C66.6267 3.76443 66.6057 3.83173 66.5994 3.86538C65.8759 4.49629 65.1273 5.08094 64.4185 5.72447C63.6867 5.1924 62.9464 4.67295 62.1956 4.16191C62.1073 4.0883 61.9853 4.03783 61.9369 3.92847C62.0652 3.62352 62.2503 3.34172 62.3849 3.04519H62.3807ZM62.0211 3.10617C61.8991 3.33611 61.7813 3.56744 61.6677 3.80018C61.4574 3.63825 61.2345 3.48262 61.0137 3.3312C61.3502 3.24077 61.6867 3.16716 62.0253 3.10617H62.0211ZM60.6099 3.46369C60.9191 3.65297 61.2156 3.86117 61.5163 4.06096C61.4385 4.25865 61.3544 4.45423 61.2682 4.64771C60.7277 4.43741 60.305 3.99366 59.8591 3.62773L60.6099 3.46369ZM59.1777 3.90323C59.3328 3.95437 59.4969 3.97228 59.6593 3.95581C60.1514 4.26706 60.6162 4.62668 61.0915 4.96527C60.7466 5.72027 60.4017 6.47736 60.04 7.22184C59.1399 7.41322 58.2545 7.65928 57.3691 7.90533C57.9853 6.57831 58.5468 5.22395 59.1819 3.90323H59.1777ZM65.4869 15.3102C63.1735 15.5731 60.8602 15.8086 58.5342 16.0357C57.8549 16.1072 57.1735 16.143 56.4921 16.1598C58.2671 15.0515 60.3786 14.6877 62.4185 14.3848C63.4067 14.2283 64.4045 14.1412 65.4049 14.1241C68.0295 13.9705 70.6499 13.7728 73.2724 13.6446C74.0652 13.6088 74.8581 13.5331 75.653 13.5752C72.2881 14.2376 68.9043 14.8475 65.4995 15.3102H65.4869ZM97.1988 13.2492C92.387 13.8906 87.5479 14.2818 82.7109 14.654C80.5805 14.7634 78.448 14.8938 76.3155 14.919C79.8907 14.5573 83.4511 14.1135 87.02 13.7119C89.4911 13.4279 91.9643 13.1566 94.4417 12.9211C96.6751 12.6729 98.9085 12.4332 101.146 12.2166C105.123 11.7728 109.102 11.3249 113.081 10.8959C107.805 11.81 102.511 12.5944 97.1988 13.2492ZM115.838 8.85381C115.457 9.18609 115.117 9.56674 114.679 9.82542C112.997 9.77074 111.314 9.49314 109.632 9.61511C110.368 8.97158 111.045 8.26285 111.735 7.56254C113.137 7.6088 114.539 7.70064 115.941 7.83804C116.19 7.85333 116.433 7.91317 116.66 8.01469C116.416 8.32166 116.14 8.60283 115.838 8.85381Z" fill="white"/>
<path d="M53.6278 27.9473C57.7582 26.1135 62.3723 25.6193 66.8475 25.9326C69.0458 26.0637 71.2333 26.3362 73.3964 26.7486C77.8696 27.4678 82.2292 28.7486 86.7087 29.4405C81.9075 29.3732 77.2597 28.0272 72.5489 27.2554C70.4459 26.9063 68.3323 26.6119 66.2103 26.431C62.293 26.1447 58.3561 26.5635 54.5868 27.6676C54.2722 27.7776 53.9521 27.8709 53.6278 27.9473Z" fill="white"/>
<path d="M106.885 18.6331C107.07 18.6898 107.066 18.9065 107.131 19.0537C107.615 20.6162 107.802 22.3386 107.306 23.9264C106.885 25.2577 105.88 26.3239 104.738 27.0936C103.518 27.8865 102.116 28.3555 100.709 28.6814C98.3134 29.1672 95.8549 29.203 93.4196 29.102C91.8118 29.0153 90.2102 28.8376 88.6225 28.57C85.9201 28.1031 83.2429 27.5058 80.5384 27.041C77.224 26.3996 73.8885 25.8339 70.5237 25.5016C67.6677 25.1672 64.7928 24.9254 61.9138 25.0284C60.0736 25.1315 58.2271 25.2282 56.4143 25.5836C54.699 25.8894 53.0226 26.3831 51.4153 27.0558C50.8475 27.2829 50.3197 27.6026 49.756 27.8402C51.0431 26.7634 52.5237 25.9475 54.021 25.2135C54.9968 24.8644 55.9495 24.4501 56.9527 24.1767C58.6856 23.6919 60.4491 23.3237 62.2313 23.0747C66.98 22.3996 71.7939 22.5594 76.5615 22.8917C79.2955 23.102 81.9895 23.4953 84.7066 23.7792C86.286 23.9895 87.8612 24.2398 89.4427 24.4879C91.6908 24.7908 93.9054 25.3292 96.1724 25.4596C97.9869 25.6464 99.8196 25.5356 101.598 25.1315C103.203 24.7109 104.753 23.8297 105.718 22.4564C106.526 21.3586 106.835 19.979 106.885 18.6331Z" fill="#35ADD5"/>
<path d="M8.17876 38.3868C9.95163 38.3868 11.3691 39.7117 11.653 41.6255H15.2282C15.2205 40.66 15.021 39.7057 14.6414 38.818C14.5537 38.8307 14.4651 38.837 14.3764 38.8369C14.0423 38.8381 13.7155 38.7383 13.4389 38.5507C13.1624 38.3631 12.9489 38.0963 12.8265 37.7854V37.7559C12.7213 37.4468 12.6162 37.1376 12.53 36.8285C12.1094 36.9694 11.6698 37.104 11.2387 37.2386L10.4627 37.4825C10.3166 37.5328 10.1629 37.5577 10.0084 37.5561C9.72501 37.5586 9.44676 37.4804 9.20608 37.3308C8.96539 37.1811 8.77219 36.9662 8.64898 36.7109C8.52578 36.4557 8.47764 36.1707 8.51019 35.8892C8.54273 35.6077 8.65462 35.3412 8.83281 35.1208L8.85174 35.0956C8.94848 34.982 9.04942 34.8684 9.14616 34.757C8.73472 34.6957 8.31924 34.6655 7.90326 34.6665C2.5531 34.6749 0 38.5509 0 44.0146C0 49.4783 2.5531 53.35 7.89695 53.35C12.0084 53.35 15.1525 50.5382 15.2219 46.3994H11.6467C11.3628 48.3153 9.94532 49.6381 8.17245 49.6381C5.20084 49.6318 4.09043 46.6876 4.09043 44.0146C4.09043 41.3416 5.20084 38.3868 8.17876 38.3868Z" fill="#35ADD5"/>
<path d="M27.1609 38.7444L26.2881 39.0199C25.232 39.3031 24.1429 39.4446 23.0494 39.4405H22.9737C21.9314 39.4556 20.8923 39.3203 19.8886 39.0388L15.3397 52.9715H19.571L20.9422 48.3848H26.2124L27.5857 52.9715H31.8149L27.1609 38.7444ZM21.9348 45.0767L23.5668 39.6087L25.2219 45.0767H21.9348Z" fill="#35ADD5"/>
<path d="M41.3186 35.0537H35.693C35.6968 35.1859 35.6797 35.3179 35.6425 35.4449C35.5841 35.6574 35.4726 35.8515 35.3185 36.009C35.1643 36.1665 34.9725 36.2821 34.7613 36.345L32.9485 36.917V52.9717H36.9211V46.2419H41.3186C44.4606 46.2419 46.6835 43.9727 46.6835 40.734C46.6877 37.3229 44.509 35.0537 41.3186 35.0537ZM40.0862 42.9254H36.9211V38.387H40.0862C41.7876 38.387 42.5699 39.2135 42.5699 40.7004C42.5699 42.0989 41.7434 42.9254 40.0862 42.9254Z" fill="#35ADD5"/>
<path d="M46.9169 35.0537V38.387H51.7876V52.9717H55.7582V38.387H60.6267V35.0537H46.9169Z" fill="#35ADD5"/>
<path d="M73.2492 35.0537L70.4122 46.2356L67.5773 35.0537H61.7603V52.9717H65.7308V41.3187L68.6877 52.9717H72.1157L75.0599 41.3187V52.9717H79.0305V35.0537H73.2492Z" fill="#35ADD5"/>
<path d="M90.8097 35.0537H86.061L80.1977 52.9717H84.429L85.8044 48.3849H91.062L92.4332 52.9717H96.6646L90.8097 35.0537ZM86.7929 45.0768L88.4248 39.6089L90.0778 45.0768H86.7929Z" fill="#35ADD5"/>
<path d="M94.5931 35.0537V38.387H99.4616V52.9717H103.432V38.387H108.307V35.0537H94.5931Z" fill="#35ADD5"/>
<path d="M116.692 49.6319C113.716 49.6319 112.604 46.6771 112.604 44.0083C112.604 41.3396 113.716 38.3806 116.692 38.3806C118.465 38.3806 119.882 39.7055 120.166 41.6193H123.741C123.67 37.4805 120.528 34.6687 116.412 34.6687C111.07 34.6687 108.517 38.5446 108.517 44.0083C108.517 49.4721 111.07 53.3438 116.412 53.3438C120.528 53.3438 123.67 50.532 123.741 46.3932H120.166C119.874 48.3154 118.465 49.6319 116.692 49.6319Z" fill="#35ADD5"/>
<path d="M136.501 35.0537V42.2398H129.455V35.0537H125.485V52.9717H129.455V45.5479H136.501V52.9717H140.496V35.0537H136.501Z" fill="#35ADD5"/>
<path d="M24.2503 20.532C24.981 20.0473 25.8323 19.7757 26.7087 19.7476C27.6388 19.7453 28.5515 20 29.346 20.4836C30.066 20.9816 30.6283 21.6756 30.966 22.4833C31.3037 23.291 31.4027 24.1787 31.2513 25.0409C31.0139 25.9142 30.7167 26.77 30.3617 27.6025C30.1514 28.0714 29.9769 28.5551 29.7434 29.0094C28.1472 29.4973 26.5384 29.9558 24.9779 30.5467C23.7813 31.0262 22.6057 31.552 21.4259 32.0693C18.3386 33.4384 15.2534 34.837 12.1704 36.2334C11.3775 36.4963 10.5762 36.7381 9.77919 36.9926C9.59559 37.0518 9.39644 37.04 9.22118 36.9593C9.04591 36.8787 8.90731 36.7352 8.83282 36.5573C8.77826 36.4293 8.75999 36.2888 8.78002 36.1512C8.80005 36.0135 8.85761 35.8841 8.94639 35.777C10.9359 33.4931 12.9022 31.1966 14.9317 28.9463C15.8388 27.927 16.7845 26.9456 17.7687 26.002C19.123 24.6897 20.5258 23.4258 21.9853 22.2313C22.7129 21.6319 23.4595 21.0515 24.2503 20.532ZM25.8002 22.063C25.6071 22.211 25.4736 22.4235 25.4242 22.6617C25.3748 22.9 25.4127 23.148 25.531 23.3606C25.6256 23.5295 25.7661 23.6681 25.9362 23.7604C26.1062 23.8527 26.299 23.8949 26.4921 23.8822C26.572 24.1303 26.6478 24.3785 26.7298 24.6245C26.4627 24.736 26.1767 24.7844 25.918 24.9106C25.8946 24.9442 25.8802 24.9833 25.8762 25.0241C25.8723 25.0649 25.8788 25.1061 25.8953 25.1436C25.9117 25.1812 25.9375 25.2139 25.9702 25.2386C26.0029 25.2634 26.0414 25.2793 26.082 25.2849C26.3491 25.2281 26.6015 25.1251 26.8644 25.0494C27.0312 25.5863 27.2002 26.1219 27.3712 26.6561C26.755 26.4605 26.1346 26.2796 25.5163 26.0883C25.4666 26.0609 25.4088 26.0522 25.3532 26.0638C25.2977 26.0754 25.2481 26.1064 25.2135 26.1514C25.1944 26.1789 25.1815 26.2103 25.1757 26.2433C25.1699 26.2763 25.1713 26.3102 25.1799 26.3426C25.1885 26.375 25.2041 26.4052 25.2255 26.431C25.2469 26.4568 25.2736 26.4776 25.3039 26.4921C26.0652 26.7024 26.8181 26.9484 27.5773 27.1734C27.6546 27.1948 27.7354 27.2006 27.8149 27.1903C28.2902 26.593 28.7592 25.9915 29.2282 25.3901C29.3018 25.2828 29.4385 25.1798 29.4091 25.0346C29.404 24.9918 29.3858 24.9515 29.3571 24.9193C29.3283 24.887 29.2903 24.8645 29.2483 24.8546C29.2063 24.8447 29.1622 24.848 29.1221 24.864C29.082 24.8801 29.0478 24.9081 29.0242 24.9442C28.6036 25.4679 28.2019 25.9957 27.7855 26.5194C27.6194 25.9852 27.449 25.4531 27.2808 24.919L28.0631 24.6687C28.1073 24.6074 28.1315 24.534 28.1325 24.4584C28.1325 24.3638 28.0316 24.3175 27.9664 24.2628C27.6867 24.3238 27.4196 24.4353 27.142 24.4984C27.0726 24.2502 26.9884 24.0041 26.9127 23.756C27.0517 23.6719 27.1686 23.556 27.2538 23.4177C27.3391 23.2795 27.3901 23.1229 27.4027 22.961C27.4191 22.7647 27.3776 22.5679 27.2834 22.3949C27.1892 22.2219 27.0465 22.0802 26.8728 21.9873C26.7056 21.8956 26.5156 21.854 26.3254 21.8674C26.1352 21.8808 25.9528 21.9487 25.8002 22.063Z" fill="white"/>
<path d="M26.0778 22.3954C26.1842 22.3205 26.3127 22.2838 26.4426 22.2912C26.5724 22.2987 26.6959 22.3498 26.793 22.4363C26.8901 22.5229 26.9551 22.6397 26.9774 22.7678C26.9996 22.896 26.9779 23.0279 26.9157 23.1421C26.8535 23.2563 26.7545 23.3462 26.6347 23.397C26.515 23.4478 26.3816 23.4566 26.2562 23.422C26.1309 23.3873 26.0209 23.3113 25.9442 23.2063C25.8675 23.1012 25.8286 22.9733 25.8339 22.8434C25.8382 22.7551 25.8624 22.669 25.9046 22.5915C25.9469 22.5139 26.0061 22.4469 26.0778 22.3954Z" fill="url(#paint0_linear_226_5126)"/>
<path d="M24.1304 31.3755C25.979 30.5637 27.9285 30.0253 29.8549 29.4407C29.979 29.8255 30.0967 30.2146 30.2229 30.6016C27.7603 31.3839 25.2892 32.1431 22.8244 32.9149C20.4122 33.6594 18.0063 34.427 15.5941 35.1631C18.4311 33.8865 21.2681 32.5974 24.1304 31.3755Z" fill="white"/>
<path d="M12.7718 36.5131C18.6351 34.6904 24.4956 32.8622 30.3533 31.0283C30.5608 31.6957 30.7711 32.3624 30.9842 33.0283C25.4322 34.7865 19.8787 36.539 14.3239 38.2859C14.0995 38.3573 13.8565 38.342 13.6428 38.2431C13.4291 38.1443 13.2602 37.969 13.1693 37.7518C13.0389 37.3459 12.9043 36.9295 12.7718 36.5131Z" fill="white"/>
<path d="M17.8192 37.5353L31.2093 33.304C32.408 33.7687 33.6046 34.2398 34.8013 34.7067C34.9395 34.7582 35.0531 34.8602 35.119 34.9921C35.185 35.124 35.1984 35.2761 35.1567 35.4175C35.1312 35.5113 35.0821 35.5969 35.0139 35.6662C34.9458 35.7354 34.861 35.7859 34.7676 35.8129L26.0652 38.5616C25.0499 38.8315 24.0032 38.9652 22.9527 38.9591C21.4806 38.9591 19.979 38.7488 18.6625 38.0716C18.366 37.9183 18.0837 37.7388 17.8192 37.5353Z" fill="white"/>
<path d="M36.4286 57.5364C36.4286 57.3075 36.4802 57.1023 36.5834 56.9206C36.6866 56.7366 36.8268 56.5931 37.004 56.4899C37.1835 56.3867 37.382 56.3351 37.5996 56.3351C37.8553 56.3351 38.0785 56.3968 38.2692 56.5202C38.4599 56.6435 38.599 56.8185 38.6865 57.0451H38.3197C38.2546 56.9038 38.1604 56.795 38.037 56.7187C37.9159 56.6424 37.7701 56.6043 37.5996 56.6043C37.4358 56.6043 37.2889 56.6424 37.1588 56.7187C37.0287 56.795 36.9266 56.9038 36.8526 57.0451C36.7786 57.1842 36.7416 57.3479 36.7416 57.5364C36.7416 57.7225 36.7786 57.8863 36.8526 58.0276C36.9266 58.1667 37.0287 58.2744 37.1588 58.3507C37.2889 58.4269 37.4358 58.4651 37.5996 58.4651C37.7701 58.4651 37.9159 58.428 38.037 58.354C38.1604 58.2777 38.2546 58.1689 38.3197 58.0276H38.6865C38.599 58.2519 38.4599 58.4258 38.2692 58.5492C38.0785 58.6703 37.8553 58.7309 37.5996 58.7309C37.382 58.7309 37.1835 58.6804 37.004 58.5795C36.8268 58.4763 36.6866 58.3338 36.5834 58.1521C36.4802 57.9704 36.4286 57.7652 36.4286 57.5364ZM39.9465 58.741C39.7737 58.741 39.6167 58.7017 39.4754 58.6232C39.3363 58.5447 39.2264 58.4337 39.1456 58.2901C39.0671 58.1443 39.0279 57.976 39.0279 57.7854C39.0279 57.5969 39.0682 57.4309 39.149 57.2873C39.232 57.1415 39.3442 57.0305 39.4855 56.9542C39.6268 56.8757 39.785 56.8365 39.9599 56.8365C40.1349 56.8365 40.2931 56.8757 40.4344 56.9542C40.5757 57.0305 40.6867 57.1404 40.7675 57.284C40.8505 57.4276 40.892 57.5947 40.892 57.7854C40.892 57.976 40.8494 58.1443 40.7641 58.2901C40.6811 58.4337 40.5679 58.5447 40.4243 58.6232C40.2807 58.7017 40.1214 58.741 39.9465 58.741ZM39.9465 58.4718C40.0564 58.4718 40.1596 58.446 40.256 58.3944C40.3525 58.3428 40.4299 58.2654 40.4882 58.1622C40.5488 58.059 40.5791 57.9334 40.5791 57.7854C40.5791 57.6373 40.5499 57.5117 40.4916 57.4085C40.4333 57.3053 40.357 57.229 40.2628 57.1797C40.1686 57.1281 40.0665 57.1023 39.9566 57.1023C39.8444 57.1023 39.7412 57.1281 39.647 57.1797C39.555 57.229 39.481 57.3053 39.4249 57.4085C39.3688 57.5117 39.3408 57.6373 39.3408 57.7854C39.3408 57.9356 39.3677 58.0624 39.4216 58.1656C39.4776 58.2688 39.5517 58.3462 39.6436 58.3978C39.7356 58.4471 39.8366 58.4718 39.9465 58.4718ZM42.193 56.8331C42.4174 56.8331 42.5991 56.9015 42.7381 57.0383C42.8772 57.1729 42.9468 57.3681 42.9468 57.6238V58.7107H42.6439V57.6676C42.6439 57.4836 42.5979 57.3434 42.506 57.247C42.414 57.1483 42.2884 57.0989 42.1291 57.0989C41.9676 57.0989 41.8386 57.1494 41.7421 57.2503C41.6479 57.3513 41.6008 57.4982 41.6008 57.6911V58.7107H41.2946V56.8667H41.6008V57.1292C41.6614 57.035 41.7433 56.9621 41.8464 56.9105C41.9519 56.8589 42.0674 56.8331 42.193 56.8331ZM44.3454 56.8331C44.5697 56.8331 44.7514 56.9015 44.8905 57.0383C45.0296 57.1729 45.0991 57.3681 45.0991 57.6238V58.7107H44.7963V57.6676C44.7963 57.4836 44.7503 57.3434 44.6583 57.247C44.5663 57.1483 44.4407 57.0989 44.2814 57.0989C44.1199 57.0989 43.9909 57.1494 43.8945 57.2503C43.8003 57.3513 43.7532 57.4982 43.7532 57.6911V58.7107H43.4469V56.8667H43.7532V57.1292C43.8137 57.035 43.8956 56.9621 43.9988 56.9105C44.1042 56.8589 44.2197 56.8331 44.3454 56.8331ZM47.2817 57.7181C47.2817 57.7764 47.2784 57.8381 47.2716 57.9031H45.7978C45.809 58.0848 45.8707 58.2273 45.9829 58.3305C46.0973 58.4314 46.2353 58.4819 46.3968 58.4819C46.5291 58.4819 46.639 58.4516 46.7265 58.391C46.8163 58.3282 46.8791 58.2452 46.915 58.142H47.2447C47.1954 58.3192 47.0967 58.4639 46.9486 58.5761C46.8006 58.686 46.6166 58.741 46.3968 58.741C46.2218 58.741 46.0648 58.7017 45.9257 58.6232C45.7888 58.5447 45.6812 58.4337 45.6027 58.2901C45.5241 58.1443 45.4849 57.976 45.4849 57.7854C45.4849 57.5947 45.523 57.4276 45.5993 57.284C45.6756 57.1404 45.7821 57.0305 45.919 56.9542C46.058 56.8757 46.2173 56.8365 46.3968 56.8365C46.5717 56.8365 46.7265 56.8746 46.8611 56.9509C46.9957 57.0271 47.0989 57.1326 47.1707 57.2672C47.2447 57.3995 47.2817 57.5498 47.2817 57.7181ZM46.9654 57.6541C46.9654 57.5375 46.9396 57.4376 46.888 57.3546C46.8364 57.2694 46.7658 57.2055 46.676 57.1628C46.5886 57.118 46.491 57.0956 46.3833 57.0956C46.2285 57.0956 46.0962 57.1449 45.9862 57.2436C45.8786 57.3423 45.8169 57.4791 45.8012 57.6541H46.9654ZM47.5715 57.7854C47.5715 57.5947 47.6096 57.4287 47.6859 57.2873C47.7622 57.1438 47.8676 57.0327 48.0022 56.9542C48.139 56.8757 48.295 56.8365 48.4699 56.8365C48.6965 56.8365 48.8827 56.8914 49.0285 57.0013C49.1766 57.1113 49.2741 57.2638 49.3212 57.459H48.9915C48.9601 57.3468 48.8984 57.2582 48.8064 57.1931C48.7167 57.1281 48.6045 57.0956 48.4699 57.0956C48.295 57.0956 48.1536 57.1561 48.046 57.2773C47.9383 57.3961 47.8844 57.5655 47.8844 57.7854C47.8844 58.0074 47.9383 58.179 48.046 58.3002C48.1536 58.4213 48.295 58.4819 48.4699 58.4819C48.6045 58.4819 48.7167 58.4505 48.8064 58.3877C48.8961 58.3249 48.9578 58.2351 48.9915 58.1185H49.3212C49.2719 58.3069 49.1732 58.4583 49.0251 58.5727C48.8771 58.6849 48.692 58.741 48.4699 58.741C48.295 58.741 48.139 58.7017 48.0022 58.6232C47.8676 58.5447 47.7622 58.4337 47.6859 58.2901C47.6096 58.1465 47.5715 57.9783 47.5715 57.7854ZM50.1033 57.1191V58.206C50.1033 58.2957 50.1224 58.3596 50.1605 58.3978C50.1987 58.4337 50.2648 58.4516 50.359 58.4516H50.5845V58.7107H50.3086C50.1381 58.7107 50.0102 58.6714 49.925 58.5929C49.8397 58.5144 49.7971 58.3854 49.7971 58.206V57.1191H49.5582V56.8667H49.7971V56.4024H50.1033V56.8667H50.5845V57.1191H50.1033ZM51.1136 56.5673C51.0553 56.5673 51.006 56.5471 50.9656 56.5067C50.9252 56.4663 50.905 56.417 50.905 56.3586C50.905 56.3003 50.9252 56.251 50.9656 56.2106C51.006 56.1702 51.0553 56.15 51.1136 56.15C51.1697 56.15 51.2168 56.1702 51.255 56.2106C51.2953 56.251 51.3155 56.3003 51.3155 56.3586C51.3155 56.417 51.2953 56.4663 51.255 56.5067C51.2168 56.5471 51.1697 56.5673 51.1136 56.5673ZM51.2617 56.8667V58.7107H50.9555V56.8667H51.2617ZM52.682 56.8331C52.9063 56.8331 53.088 56.9015 53.2271 57.0383C53.3662 57.1729 53.4357 57.3681 53.4357 57.6238V58.7107H53.1329V57.6676C53.1329 57.4836 53.0869 57.3434 52.9949 57.247C52.903 57.1483 52.7773 57.0989 52.6181 57.0989C52.4565 57.0989 52.3276 57.1494 52.2311 57.2503C52.1369 57.3513 52.0898 57.4982 52.0898 57.6911V58.7107H51.7836V56.8667H52.0898V57.1292C52.1503 57.035 52.2322 56.9621 52.3354 56.9105C52.4408 56.8589 52.5564 56.8331 52.682 56.8331ZM54.6964 56.8365C54.8556 56.8365 54.9947 56.8712 55.1136 56.9408C55.2348 57.0103 55.3245 57.0978 55.3828 57.2032V56.8667H55.6924V58.7511C55.6924 58.9193 55.6565 59.0685 55.5847 59.1986C55.5129 59.331 55.4097 59.4341 55.2751 59.5082C55.1428 59.5822 54.988 59.6192 54.8108 59.6192C54.5685 59.6192 54.3666 59.562 54.2051 59.4476C54.0436 59.3332 53.9482 59.1773 53.9191 58.9799H54.2219C54.2556 59.092 54.3251 59.1818 54.4305 59.2491C54.536 59.3186 54.6627 59.3534 54.8108 59.3534C54.979 59.3534 55.1159 59.3007 55.2213 59.1952C55.329 59.0898 55.3828 58.9417 55.3828 58.7511V58.3641C55.3222 58.4718 55.2325 58.5615 55.1136 58.6333C54.9947 58.7051 54.8556 58.741 54.6964 58.741C54.5326 58.741 54.3834 58.7006 54.2488 58.6198C54.1165 58.5391 54.0122 58.4258 53.9359 58.28C53.8596 58.1342 53.8215 57.9682 53.8215 57.782C53.8215 57.5936 53.8596 57.4287 53.9359 57.2873C54.0122 57.1438 54.1165 57.0327 54.2488 56.9542C54.3834 56.8757 54.5326 56.8365 54.6964 56.8365ZM55.3828 57.7854C55.3828 57.6463 55.3548 57.5251 55.2987 57.4219C55.2426 57.3188 55.1663 57.2402 55.0699 57.1864C54.9757 57.1303 54.8713 57.1023 54.7569 57.1023C54.6425 57.1023 54.5382 57.1292 54.444 57.183C54.3498 57.2369 54.2746 57.3154 54.2186 57.4186C54.1625 57.5218 54.1344 57.6429 54.1344 57.782C54.1344 57.9233 54.1625 58.0467 54.2186 58.1521C54.2746 58.2553 54.3498 58.3349 54.444 58.391C54.5382 58.4449 54.6425 58.4718 54.7569 58.4718C54.8713 58.4718 54.9757 58.4449 55.0699 58.391C55.1663 58.3349 55.2426 58.2553 55.2987 58.1521C55.3548 58.0467 55.3828 57.9244 55.3828 57.7854ZM56.9925 57.5364C56.9925 57.3075 57.0441 57.1023 57.1473 56.9206C57.2505 56.7366 57.3907 56.5931 57.5679 56.4899C57.7474 56.3867 57.9459 56.3351 58.1635 56.3351C58.4192 56.3351 58.6424 56.3968 58.8331 56.5202C59.0238 56.6435 59.1629 56.8185 59.2503 57.0451H58.8836C58.8185 56.9038 58.7243 56.795 58.6009 56.7187C58.4798 56.6424 58.334 56.6043 58.1635 56.6043C57.9997 56.6043 57.8528 56.6424 57.7227 56.7187C57.5926 56.795 57.4905 56.9038 57.4165 57.0451C57.3425 57.1842 57.3054 57.3479 57.3054 57.5364C57.3054 57.7225 57.3425 57.8863 57.4165 58.0276C57.4905 58.1667 57.5926 58.2744 57.7227 58.3507C57.8528 58.4269 57.9997 58.4651 58.1635 58.4651C58.334 58.4651 58.4798 58.428 58.6009 58.354C58.7243 58.2777 58.8185 58.1689 58.8836 58.0276H59.2503C59.1629 58.2519 59.0238 58.4258 58.8331 58.5492C58.6424 58.6703 58.4192 58.7309 58.1635 58.7309C57.9459 58.7309 57.7474 58.6804 57.5679 58.5795C57.3907 58.4763 57.2505 58.3338 57.1473 58.1521C57.0441 57.9704 56.9925 57.7652 56.9925 57.5364ZM59.5917 57.782C59.5917 57.5936 59.6299 57.4287 59.7062 57.2873C59.7824 57.1438 59.8867 57.0327 60.0191 56.9542C60.1537 56.8757 60.3029 56.8365 60.4666 56.8365C60.6281 56.8365 60.7683 56.8712 60.8872 56.9408C61.0061 57.0103 61.0947 57.0978 61.153 57.2032V56.8667H61.4626V58.7107H61.153V58.3675C61.0925 58.4752 61.0016 58.5649 60.8805 58.6367C60.7616 58.7062 60.6225 58.741 60.4632 58.741C60.2995 58.741 60.1514 58.7006 60.0191 58.6198C59.8867 58.5391 59.7824 58.4258 59.7062 58.28C59.6299 58.1342 59.5917 57.9682 59.5917 57.782ZM61.153 57.7854C61.153 57.6463 61.125 57.5251 61.0689 57.4219C61.0128 57.3188 60.9366 57.2402 60.8401 57.1864C60.7459 57.1303 60.6416 57.1023 60.5272 57.1023C60.4128 57.1023 60.3085 57.1292 60.2142 57.183C60.12 57.2369 60.0449 57.3154 59.9888 57.4186C59.9327 57.5218 59.9047 57.6429 59.9047 57.782C59.9047 57.9233 59.9327 58.0467 59.9888 58.1521C60.0449 58.2553 60.12 58.3349 60.2142 58.391C60.3085 58.4449 60.4128 58.4718 60.5272 58.4718C60.6416 58.4718 60.7459 58.4449 60.8401 58.391C60.9366 58.3349 61.0128 58.2553 61.0689 58.1521C61.125 58.0467 61.153 57.9244 61.153 57.7854ZM62.2863 57.2066C62.3468 57.1012 62.4366 57.0137 62.5555 56.9441C62.6766 56.8723 62.8168 56.8365 62.9761 56.8365C63.1398 56.8365 63.2879 56.8757 63.4202 56.9542C63.5548 57.0327 63.6603 57.1438 63.7365 57.2873C63.8128 57.4287 63.8509 57.5936 63.8509 57.782C63.8509 57.9682 63.8128 58.1342 63.7365 58.28C63.6603 58.4258 63.5548 58.5391 63.4202 58.6198C63.2879 58.7006 63.1398 58.741 62.9761 58.741C62.8191 58.741 62.68 58.7062 62.5588 58.6367C62.4399 58.5649 62.3491 58.4763 62.2863 58.3708V59.5856H61.9801V56.8667H62.2863V57.2066ZM63.538 57.782C63.538 57.6429 63.51 57.5218 63.4539 57.4186C63.3978 57.3154 63.3215 57.2369 63.2251 57.183C63.1309 57.1292 63.0266 57.1023 62.9121 57.1023C62.8 57.1023 62.6957 57.1303 62.5992 57.1864C62.505 57.2402 62.4287 57.3199 62.3704 57.4253C62.3143 57.5285 62.2863 57.6485 62.2863 57.7854C62.2863 57.9244 62.3143 58.0467 62.3704 58.1521C62.4287 58.2553 62.505 58.3349 62.5992 58.391C62.6957 58.4449 62.8 58.4718 62.9121 58.4718C63.0266 58.4718 63.1309 58.4449 63.2251 58.391C63.3215 58.3349 63.3978 58.2553 63.4539 58.1521C63.51 58.0467 63.538 57.9233 63.538 57.782ZM64.6275 57.1191V58.206C64.6275 58.2957 64.6466 58.3596 64.6847 58.3978C64.7228 58.4337 64.789 58.4516 64.8832 58.4516H65.1087V58.7107H64.8328C64.6623 58.7107 64.5344 58.6714 64.4492 58.5929C64.3639 58.5144 64.3213 58.3854 64.3213 58.206V57.1191H64.0824V56.8667H64.3213V56.4024H64.6275V56.8667H65.1087V57.1191H64.6275ZM65.3653 57.782C65.3653 57.5936 65.4034 57.4287 65.4797 57.2873C65.556 57.1438 65.6603 57.0327 65.7926 56.9542C65.9272 56.8757 66.0764 56.8365 66.2401 56.8365C66.4017 56.8365 66.5419 56.8712 66.6608 56.9408C66.7796 57.0103 66.8683 57.0978 66.9266 57.2032V56.8667H67.2361V58.7107H66.9266V58.3675C66.866 58.4752 66.7752 58.5649 66.654 58.6367C66.5351 58.7062 66.396 58.741 66.2368 58.741C66.073 58.741 65.925 58.7006 65.7926 58.6198C65.6603 58.5391 65.556 58.4258 65.4797 58.28C65.4034 58.1342 65.3653 57.9682 65.3653 57.782ZM66.9266 57.7854C66.9266 57.6463 66.8985 57.5251 66.8425 57.4219C66.7864 57.3188 66.7101 57.2402 66.6136 57.1864C66.5194 57.1303 66.4151 57.1023 66.3007 57.1023C66.1863 57.1023 66.082 57.1292 65.9878 57.183C65.8936 57.2369 65.8184 57.3154 65.7623 57.4186C65.7062 57.5218 65.6782 57.6429 65.6782 57.782C65.6782 57.9233 65.7062 58.0467 65.7623 58.1521C65.8184 58.2553 65.8936 58.3349 65.9878 58.391C66.082 58.4449 66.1863 58.4718 66.3007 58.4718C66.4151 58.4718 66.5194 58.4449 66.6136 58.391C66.7101 58.3349 66.7864 58.2553 66.8425 58.1521C66.8985 58.0467 66.9266 57.9244 66.9266 57.7854ZM67.9118 56.5673C67.8534 56.5673 67.8041 56.5471 67.7637 56.5067C67.7233 56.4663 67.7031 56.417 67.7031 56.3586C67.7031 56.3003 67.7233 56.251 67.7637 56.2106C67.8041 56.1702 67.8534 56.15 67.9118 56.15C67.9678 56.15 68.0149 56.1702 68.0531 56.2106C68.0935 56.251 68.1136 56.3003 68.1136 56.3586C68.1136 56.417 68.0935 56.4663 68.0531 56.5067C68.0149 56.5471 67.9678 56.5673 67.9118 56.5673ZM68.0598 56.8667V58.7107H67.7536V56.8667H68.0598ZM69.4801 56.8331C69.7044 56.8331 69.8861 56.9015 70.0252 57.0383C70.1643 57.1729 70.2338 57.3681 70.2338 57.6238V58.7107H69.931V57.6676C69.931 57.4836 69.885 57.3434 69.793 57.247C69.7011 57.1483 69.5754 57.0989 69.4162 57.0989C69.2547 57.0989 69.1257 57.1494 69.0292 57.2503C68.935 57.3513 68.8879 57.4982 68.8879 57.6911V58.7107H68.5817V56.8667H68.8879V57.1292C68.9484 57.035 69.0303 56.9621 69.1335 56.9105C69.239 56.8589 69.3545 56.8331 69.4801 56.8331ZM71.3868 58.741C71.2455 58.741 71.1187 58.7174 71.0066 58.6703C70.8944 58.621 70.8058 58.5537 70.7407 58.4684C70.6757 58.3809 70.6398 58.2811 70.6331 58.1689H70.9494C70.9583 58.2609 71.001 58.3361 71.0772 58.3944C71.1557 58.4527 71.2578 58.4819 71.3834 58.4819C71.5001 58.4819 71.5921 58.4561 71.6594 58.4045C71.7267 58.3529 71.7603 58.2878 71.7603 58.2093C71.7603 58.1286 71.7244 58.0691 71.6526 58.031C71.5808 57.9906 71.4698 57.9514 71.3195 57.9132C71.1827 57.8773 71.0705 57.8414 70.983 57.8055C70.8978 57.7674 70.8237 57.7124 70.7609 57.6407C70.7004 57.5666 70.6701 57.4702 70.6701 57.3513C70.6701 57.2571 70.6981 57.1707 70.7542 57.0922C70.8103 57.0137 70.8899 56.952 70.9931 56.9071C71.0963 56.86 71.2141 56.8365 71.3464 56.8365C71.5506 56.8365 71.7154 56.8881 71.8411 56.9912C71.9667 57.0944 72.034 57.2358 72.043 57.4152H71.7368C71.73 57.3188 71.6908 57.2414 71.619 57.183C71.5494 57.1247 71.4552 57.0956 71.3363 57.0956C71.2264 57.0956 71.1389 57.1191 71.0739 57.1662C71.0088 57.2133 70.9763 57.275 70.9763 57.3513C70.9763 57.4118 70.9954 57.4623 71.0335 57.5027C71.0739 57.5408 71.1232 57.5722 71.1815 57.5969C71.2421 57.6194 71.3251 57.6451 71.4305 57.6743C71.5629 57.7102 71.6706 57.7461 71.7536 57.782C71.8366 57.8156 71.9072 57.8672 71.9656 57.9368C72.0261 58.0063 72.0575 58.0972 72.0598 58.2093C72.0598 58.3103 72.0317 58.4011 71.9757 58.4819C71.9196 58.5626 71.8399 58.6266 71.7368 58.6737C71.6358 58.7185 71.5192 58.741 71.3868 58.741ZM75.8455 56.8667L75.2701 58.7107H74.9538L74.5096 57.247L74.0655 58.7107H73.7492L73.1704 56.8667H73.4833L73.9073 58.4146L74.3649 56.8667H74.6779L75.1254 58.4179L75.5426 56.8667H75.8455ZM76.3075 56.5673C76.2492 56.5673 76.1998 56.5471 76.1595 56.5067C76.1191 56.4663 76.0989 56.417 76.0989 56.3586C76.0989 56.3003 76.1191 56.251 76.1595 56.2106C76.1998 56.1702 76.2492 56.15 76.3075 56.15C76.3636 56.15 76.4107 56.1702 76.4488 56.2106C76.4892 56.251 76.5094 56.3003 76.5094 56.3586C76.5094 56.417 76.4892 56.4663 76.4488 56.5067C76.4107 56.5471 76.3636 56.5673 76.3075 56.5673ZM76.4556 56.8667V58.7107H76.1494V56.8667H76.4556ZM77.3509 57.1191V58.206C77.3509 58.2957 77.37 58.3596 77.4081 58.3978C77.4463 58.4337 77.5125 58.4516 77.6067 58.4516H77.8321V58.7107H77.5562C77.3857 58.7107 77.2579 58.6714 77.1726 58.5929C77.0874 58.5144 77.0447 58.3854 77.0447 58.206V57.1191H76.8058V56.8667H77.0447V56.4024H77.3509V56.8667H77.8321V57.1191H77.3509ZM79.1184 56.8331C79.2575 56.8331 79.3831 56.8634 79.4952 56.9239C79.6074 56.9823 79.6949 57.0709 79.7577 57.1898C79.8228 57.3087 79.8553 57.4534 79.8553 57.6238V58.7107H79.5524V57.6676C79.5524 57.4836 79.5065 57.3434 79.4145 57.247C79.3225 57.1483 79.1969 57.0989 79.0376 57.0989C78.8761 57.0989 78.7471 57.1494 78.6507 57.2503C78.5564 57.3513 78.5093 57.4982 78.5093 57.6911V58.7107H78.2031V56.2207H78.5093V57.1292C78.5699 57.035 78.6529 56.9621 78.7583 56.9105C78.866 56.8589 78.986 56.8331 79.1184 56.8331ZM82.8946 56.3654L82.1308 57.8257V58.7107H81.8246V57.8257L81.0574 56.3654H81.3972L81.976 57.5532L82.5548 56.3654H82.8946ZM83.1032 57.782C83.1032 57.5936 83.1413 57.4287 83.2176 57.2873C83.2939 57.1438 83.3982 57.0327 83.5305 56.9542C83.6651 56.8757 83.8143 56.8365 83.9781 56.8365C84.1396 56.8365 84.2798 56.8712 84.3987 56.9408C84.5176 57.0103 84.6062 57.0978 84.6645 57.2032V56.8667H84.9741V58.7107H84.6645V58.3675C84.6039 58.4752 84.5131 58.5649 84.3919 58.6367C84.273 58.7062 84.134 58.741 83.9747 58.741C83.8109 58.741 83.6629 58.7006 83.5305 58.6198C83.3982 58.5391 83.2939 58.4258 83.2176 58.28C83.1413 58.1342 83.1032 57.9682 83.1032 57.782ZM84.6645 57.7854C84.6645 57.6463 84.6364 57.5251 84.5804 57.4219C84.5243 57.3188 84.448 57.2402 84.3516 57.1864C84.2573 57.1303 84.153 57.1023 84.0386 57.1023C83.9242 57.1023 83.8199 57.1292 83.7257 57.183C83.6315 57.2369 83.5563 57.3154 83.5002 57.4186C83.4442 57.5218 83.4161 57.6429 83.4161 57.782C83.4161 57.9233 83.4442 58.0467 83.5002 58.1521C83.5563 58.2553 83.6315 58.3349 83.7257 58.391C83.8199 58.4449 83.9242 58.4718 84.0386 58.4718C84.153 58.4718 84.2573 58.4449 84.3516 58.391C84.448 58.3349 84.5243 58.2553 84.5804 58.1521C84.6364 58.0467 84.6645 57.9244 84.6645 57.7854ZM85.3771 57.7854C85.3771 57.5947 85.4152 57.4287 85.4915 57.2873C85.5678 57.1438 85.6732 57.0327 85.8078 56.9542C85.9447 56.8757 86.1006 56.8365 86.2755 56.8365C86.5021 56.8365 86.6883 56.8914 86.8341 57.0013C86.9822 57.1113 87.0797 57.2638 87.1268 57.459H86.7971C86.7657 57.3468 86.704 57.2582 86.612 57.1931C86.5223 57.1281 86.4101 57.0956 86.2755 57.0956C86.1006 57.0956 85.9592 57.1561 85.8516 57.2773C85.7439 57.3961 85.69 57.5655 85.69 57.7854C85.69 58.0074 85.7439 58.179 85.8516 58.3002C85.9592 58.4213 86.1006 58.4819 86.2755 58.4819C86.4101 58.4819 86.5223 58.4505 86.612 58.3877C86.7017 58.3249 86.7634 58.2351 86.7971 58.1185H87.1268C87.0775 58.3069 86.9788 58.4583 86.8307 58.5727C86.6827 58.6849 86.4976 58.741 86.2755 58.741C86.1006 58.741 85.9447 58.7017 85.8078 58.6232C85.6732 58.5447 85.5678 58.4337 85.4915 58.2901C85.4152 58.1465 85.3771 57.9783 85.3771 57.7854ZM88.4507 56.8331C88.5897 56.8331 88.7154 56.8634 88.8275 56.9239C88.9397 56.9823 89.0272 57.0709 89.09 57.1898C89.155 57.3087 89.1876 57.4534 89.1876 57.6238V58.7107H88.8847V57.6676C88.8847 57.4836 88.8387 57.3434 88.7468 57.247C88.6548 57.1483 88.5292 57.0989 88.3699 57.0989C88.2084 57.0989 88.0794 57.1494 87.9829 57.2503C87.8887 57.3513 87.8416 57.4982 87.8416 57.6911V58.7107H87.5354V56.2207H87.8416V57.1292C87.9022 57.035 87.9852 56.9621 88.0906 56.9105C88.1983 56.8589 88.3183 56.8331 88.4507 56.8331ZM90.0613 57.1191V58.206C90.0613 58.2957 90.0803 58.3596 90.1185 58.3978C90.1566 58.4337 90.2228 58.4516 90.317 58.4516H90.5424V58.7107H90.2665C90.096 58.7107 89.9682 58.6714 89.8829 58.5929C89.7977 58.5144 89.7551 58.3854 89.7551 58.206V57.1191H89.5161V56.8667H89.7551V56.4024H90.0613V56.8667H90.5424V57.1191H90.0613ZM92.8738 58.7342C92.6562 58.7342 92.4577 58.6838 92.2782 58.5828C92.0988 58.4796 91.9563 58.3372 91.8509 58.1555C91.7477 57.9715 91.6961 57.7652 91.6961 57.5364C91.6961 57.3075 91.7477 57.1023 91.8509 56.9206C91.9563 56.7366 92.0988 56.5942 92.2782 56.4932C92.4577 56.39 92.6562 56.3385 92.8738 56.3385C93.0937 56.3385 93.2933 56.39 93.4728 56.4932C93.6522 56.5942 93.7936 56.7355 93.8967 56.9172C93.9999 57.0989 94.0515 57.3053 94.0515 57.5364C94.0515 57.7674 93.9999 57.9738 93.8967 58.1555C93.7936 58.3372 93.6522 58.4796 93.4728 58.5828C93.2933 58.6838 93.0937 58.7342 92.8738 58.7342ZM92.8738 58.4684C93.0376 58.4684 93.1845 58.4303 93.3146 58.354C93.447 58.2777 93.5502 58.1689 93.6242 58.0276C93.7005 57.8863 93.7386 57.7225 93.7386 57.5364C93.7386 57.3479 93.7005 57.1842 93.6242 57.0451C93.5502 56.9038 93.4481 56.795 93.318 56.7187C93.1879 56.6424 93.0398 56.6043 92.8738 56.6043C92.7078 56.6043 92.5598 56.6424 92.4297 56.7187C92.2995 56.795 92.1964 56.9038 92.1201 57.0451C92.0461 57.1842 92.009 57.3479 92.009 57.5364C92.009 57.7225 92.0461 57.8863 92.1201 58.0276C92.1964 58.1689 92.2995 58.2777 92.4297 58.354C92.562 58.4303 92.7101 58.4684 92.8738 58.4684ZM96.9121 56.8667L96.3367 58.7107H96.0204L95.5763 57.247L95.1321 58.7107H94.8158L94.237 56.8667H94.55L94.974 58.4146L95.4316 56.8667H95.7445L96.192 58.4179L96.6093 56.8667H96.9121ZM98.1144 56.8331C98.3388 56.8331 98.5205 56.9015 98.6595 57.0383C98.7986 57.1729 98.8682 57.3681 98.8682 57.6238V58.7107H98.5653V57.6676C98.5653 57.4836 98.5193 57.3434 98.4274 57.247C98.3354 57.1483 98.2098 57.0989 98.0505 57.0989C97.889 57.0989 97.76 57.1494 97.6635 57.2503C97.5693 57.3513 97.5222 57.4982 97.5222 57.6911V58.7107H97.216V56.8667H97.5222V57.1292C97.5828 57.035 97.6647 56.9621 97.7679 56.9105C97.8733 56.8589 97.9888 56.8331 98.1144 56.8331ZM101.051 57.7181C101.051 57.7764 101.047 57.8381 101.041 57.9031H99.5669C99.5781 58.0848 99.6398 58.2273 99.7519 58.3305C99.8664 58.4314 100.004 58.4819 100.166 58.4819C100.298 58.4819 100.408 58.4516 100.496 58.391C100.585 58.3282 100.648 58.2452 100.684 58.142H101.014C100.964 58.3192 100.866 58.4639 100.718 58.5761C100.57 58.686 100.386 58.741 100.166 58.741C99.9909 58.741 99.8338 58.7017 99.6947 58.6232C99.5579 58.5447 99.4502 58.4337 99.3717 58.2901C99.2932 58.1443 99.2539 57.976 99.2539 57.7854C99.2539 57.5947 99.2921 57.4276 99.3684 57.284C99.4446 57.1404 99.5512 57.0305 99.688 56.9542C99.8271 56.8757 99.9864 56.8365 100.166 56.8365C100.341 56.8365 100.496 56.8746 100.63 56.9509C100.765 57.0271 100.868 57.1326 100.94 57.2672C101.014 57.3995 101.051 57.5498 101.051 57.7181ZM100.734 57.6541C100.734 57.5375 100.709 57.4376 100.657 57.3546C100.606 57.2694 100.535 57.2055 100.445 57.1628C100.358 57.118 100.26 57.0956 100.152 57.0956C99.9976 57.0956 99.8652 57.1449 99.7553 57.2436C99.6476 57.3423 99.5859 57.4791 99.5702 57.6541H100.734ZM101.761 57.1662C101.815 57.0608 101.891 56.9789 101.99 56.9206C102.091 56.8623 102.213 56.8331 102.357 56.8331V57.1494H102.276C101.933 57.1494 101.761 57.3356 101.761 57.708V58.7107H101.455V56.8667H101.761V57.1662ZM103.363 58.741C103.222 58.741 103.095 58.7174 102.983 58.6703C102.871 58.621 102.782 58.5537 102.717 58.4684C102.652 58.3809 102.616 58.2811 102.609 58.1689H102.926C102.935 58.2609 102.977 58.3361 103.053 58.3944C103.132 58.4527 103.234 58.4819 103.36 58.4819C103.476 58.4819 103.568 58.4561 103.636 58.4045C103.703 58.3529 103.737 58.2878 103.737 58.2093C103.737 58.1286 103.701 58.0691 103.629 58.031C103.557 57.9906 103.446 57.9514 103.296 57.9132C103.159 57.8773 103.047 57.8414 102.959 57.8055C102.874 57.7674 102.8 57.7124 102.737 57.6407C102.677 57.5666 102.646 57.4702 102.646 57.3513C102.646 57.2571 102.674 57.1707 102.73 57.0922C102.787 57.0137 102.866 56.952 102.969 56.9071C103.073 56.86 103.19 56.8365 103.323 56.8365C103.527 56.8365 103.692 56.8881 103.817 56.9912C103.943 57.0944 104.01 57.2358 104.019 57.4152H103.713C103.706 57.3188 103.667 57.2414 103.595 57.183C103.526 57.1247 103.431 57.0956 103.313 57.0956C103.203 57.0956 103.115 57.1191 103.05 57.1662C102.985 57.2133 102.953 57.275 102.953 57.3513C102.953 57.4118 102.972 57.4623 103.01 57.5027C103.05 57.5408 103.099 57.5722 103.158 57.5969C103.218 57.6194 103.301 57.6451 103.407 57.6743C103.539 57.7102 103.647 57.7461 103.73 57.782C103.813 57.8156 103.883 57.8672 103.942 57.9368C104.002 58.0063 104.034 58.0972 104.036 58.2093C104.036 58.3103 104.008 58.4011 103.952 58.4819C103.896 58.5626 103.816 58.6266 103.713 58.6737C103.612 58.7185 103.495 58.741 103.363 58.741Z" fill="white"/>
</g>
<defs>
<linearGradient id="paint0_linear_226_5126" x1="25.8402" y1="22.8728" x2="26.9716" y2="22.8728" gradientUnits="userSpaceOnUse">
<stop stop-color="#005494"/>
<stop offset="0.21" stop-color="#01508C"/>
<stop offset="0.53" stop-color="#064677"/>
<stop offset="0.92" stop-color="#0C3555"/>
<stop offset="1" stop-color="#0E314D"/>
</linearGradient>
<clipPath id="clip0_226_5126">
<rect width="140.496" height="60" fill="white"/>
</clipPath>
</defs>
</svg>
